<?xml version="1.0" encoding="utf-8"?>
<!-- Generator: Adobe Illustrator 23.1.0, SVG Export Plug-In . SVG Version: 6.00 Build 0)  -->
<svg version="1.1" id="Capa_1" xmlns="http://www.w3.org/2000/svg" xmlns:xlink="http://www.w3.org/1999/xlink" x="0px" y="0px"
	 viewBox="0 0 40 40" style="enable-background:new 0 0 40 40;" xml:space="preserve">
<style type="text/css">
	.st0{fill:#919396;}
	.st1{fill:#FEFEFE;}
	.st2{fill:#F57135;}
</style>
<g>
	<path class="st0" d="M8.7,20.1c0-2.4,0-4.9,0-7.3c0-5.8,4.3-10.7,10-11.5c6.2-0.9,12.1,3.3,13.2,9.4c0.1,0.7,0.2,1.4,0.2,2.2
		c0,4.8,0,9.6,0,14.4c0.1,6-4.4,10.8-9.9,11.7c-6.2,1-12.5-3.4-13.4-10c-0.2-1.7-0.1-3.4-0.1-5C8.6,22.7,8.7,21.4,8.7,20.1z"/>
	<path class="st1" d="M29.2,20.2c0,2.4,0,4.8,0,7.2c0.1,4.4-3.4,8.2-7.7,8.7c-4.7,0.6-9.2-2.7-9.9-7.5c-0.1-0.5-0.1-1-0.1-1.5
		c0-4.7,0-9.4,0-14.2c0-4,2.4-7.4,6.3-8.6c5.2-1.6,10.4,1.7,11.3,6.8c0.1,0.6,0.1,1.1,0.1,1.7C29.2,15.4,29.2,17.8,29.2,20.2z"/>
	<path d="M16.1,24.2c0-1.9,0-3.9,0-5.8c0-1.3,0.7-1.9,2-1.9c1.5,0,3.1,0,4.6,0c0.7,0,1.3,0.4,1.5,1.1c0.2,0.6,0,1.2-0.4,1.6
		c-0.3,0.3-0.8,0.4-1.2,0.4c-0.9,0-1.8,0-2.7,0c-0.3,0-0.4,0.1-0.4,0.4c0,0.8,0,1.6,0,2.4c0,0.3,0.1,0.4,0.4,0.4c0.6,0,1.2,0,1.8,0
		c0.9,0,1.6,0.7,1.6,1.6c0,0.9-0.6,1.5-1.6,1.5c-0.6,0-1.2,0-1.8,0c-0.3,0-0.4,0.1-0.4,0.4c0,0.9,0,1.7,0,2.6c0,0.3,0.1,0.4,0.4,0.4
		c0.9,0,1.9,0,2.8,0c1,0,1.6,0.6,1.6,1.5c0,0.9-0.7,1.5-1.6,1.5c-1.6,0-3.2,0-4.8,0c-1.1,0-1.8-0.7-1.8-1.8
		C16.1,28.2,16.1,26.2,16.1,24.2z"/>
	<path class="st2" d="M16,11c0-0.5,0.3-1,0.9-1.2c0.6-0.3,1.1-0.1,1.6,0.3c0.3,0.3,0.6,0.6,0.8,0.9c0.2,0.3,0.4,0.2,0.6,0
		c1-1,2-2,3.1-3c0.4-0.4,1-0.5,1.5-0.3c0.6,0.2,0.9,0.6,1,1.2c0,0.5-0.1,0.9-0.4,1.2c-1.5,1.4-3,2.9-4.5,4.3
		c-0.6,0.6-1.5,0.6-2.1-0.1c-0.7-0.7-1.4-1.5-2.1-2.2C16.1,11.9,16,11.5,16,11z"/>
</g>
</svg>
