<?xml version="1.0" encoding="utf-8"?>
<!-- Generator: Adobe Illustrator 23.1.0, SVG Export Plug-In . SVG Version: 6.00 Build 0)  -->
<svg version="1.1" id="Capa_1" xmlns="http://www.w3.org/2000/svg" xmlns:xlink="http://www.w3.org/1999/xlink" x="0px" y="0px"
	 viewBox="0 0 40 40" style="enable-background:new 0 0 40 40;" xml:space="preserve">
<style type="text/css">
	.st0{fill:#37A4FA;}
	.st1{fill:#6FBCFB;}
	.st2{fill:#75BCFB;}
	.st3{fill:#64B7FB;}
	.st4{fill:#4285F4;}
</style>
<g>
	<path class="st0" d="M15.1,37.5c-2,0.1-5.2-2-6.2-4.7C8.6,31.9,8.5,31,8.5,30c0-6.4,0.1-12.7,0-19.1C8.4,7.6,11.2,4,14.8,3.6
		c3.1-0.4,6.2-0.2,9.3-0.1c2.8,0.1,4.6,1.6,6,3.7c0.9,1.3,1,2.8,1.1,4.4c-2.6-0.5-2.7-0.5-4.3-0.1c-0.3-2.7-2.1-4-4.4-3.8
		c-2.1,0.1-4.1,0-6.2,0c-1.9,0-3.3,1.3-3.5,3.2c-0.2,0.4-0.1,0.8-0.1,1.2c0,5.6,0,11.2,0,16.7c0,0.4-0.1,0.8,0.1,1.2
		c0.2,2.1,1.5,3,3.5,3.2c2.2,0.1,4.5,0.1,6.7,0c2.4-0.1,3.5-1.4,3.7-3.7c0-0.1,0-0.2,0-0.3c-0.5-2.3,0.7-3.9,2.2-5.3
		c0.7-0.6,1-1.6,1.9-2.1c0.3,1.2,0.1,2.4,0.1,3.6c0,1.8,0.1,3.6-0.1,5.3c0,3.2-3.5,6.7-6.6,6.6C21.2,37.6,18.2,37.6,15.1,37.5z"/>
	<path class="st0" d="M17,21.7c0-1.7,0.6-2.6,1.7-2.5c0.8,0.1,1.1,0.8,1.4,1.3c1,1.4,1.2,1.3,2.3,0c1.4-1.6,2.6-3.4,4.1-4.9
		c1.2-1.2,2.6-1.1,4.1-0.3c0.8,0.4,0.7,1,0.2,1.5c-1.9,2-3.5,4.3-5.3,6.3c-0.7,0.8-1.4,1.6-2.1,2.4c-1.2,1.4-2.9,1.5-4.1,0.2
		c-0.7-0.7-1.3-1.5-1.9-2.4C17,22.8,16.8,22.1,17,21.7z"/>
	<path class="st1" d="M12.8,30.1c-0.3-0.2-0.2-0.6-0.2-0.9c0-5.8,0-11.7,0-17.5c0-0.3-0.1-0.6,0.2-0.9
		C12.8,17.3,12.8,23.7,12.8,30.1z"/>
	<path class="st2" d="M30.9,30.9c0-3,0-6,0-9c0.2-0.2,0.2-0.1,0.2,0.1c0,2.9,0,5.8,0,8.6C31.1,30.7,31,30.8,30.9,30.9z"/>
	<path class="st3" d="M15.1,37.5c3.1,0,6.1,0,9.2,0c-0.1,0.3-0.4,0.2-0.6,0.2c-2.7,0-5.4,0-8.1,0C15.5,37.7,15.2,37.8,15.1,37.5z"/>
</g>
<path class="st4" d="M9,13.1"/>
</svg>
