<?xml version="1.0" encoding="utf-8"?>
<!-- Generator: Adobe Illustrator 23.1.0, SVG Export Plug-In . SVG Version: 6.00 Build 0)  -->
<svg version="1.1" id="Capa_1" xmlns="http://www.w3.org/2000/svg" xmlns:xlink="http://www.w3.org/1999/xlink" x="0px" y="0px"
	 viewBox="0 0 40 40" style="enable-background:new 0 0 40 40;" xml:space="preserve">
<style type="text/css">
	.st0{fill:#5B5B5B;}
	.st1{fill:#704B15;}
	.st2{fill:#EFEFEE;}
	.st3{fill:#C58727;}
	.st4{fill:#868985;}
	.st5{fill:#A27122;}
	.st6{fill:#808175;}
	.st7{fill:#D6D6D5;}
	.st8{fill:#97988C;}
	.st9{fill:#7D7D6F;}
	.st10{fill:#98998E;}
	.st11{fill:#8E8E82;}
	.st12{fill:#F3F3F3;}
	.st13{fill:#919191;}
	.st14{fill:#4E4E4E;}
	.st15{fill:#E9E9E9;}
	.st16{fill:#C7C7C6;}
	.st17{fill:#C3C3C2;}
	.st18{fill:#C4C4C3;}
	.st19{fill:#C2C2C2;}
	.st20{fill:#F9F9F8;}
	.st21{fill:#B67D25;}
	.st22{fill:#AE7824;}
	.st23{fill:#88601F;}
	.st24{fill:#FCFCFC;}
	.st25{fill:#986A21;}
	.st26{fill:#8F6420;}
	.st27{fill:#946720;}
	.st28{fill:#A6A7A5;}
	.st29{fill:#989997;}
	.st30{fill:#515151;}
	.st31{fill:#373737;}
	.st32{fill:#70706E;}
	.st33{fill:#F1F1EF;}
	.st34{fill:#3D3D3D;}
	.st35{fill:#2F2F2F;}
	.st36{fill:#9C9C91;}
	.st37{fill:#A4A498;}
	.st38{fill:#B7B8AE;}
	.st39{fill:#ADADA3;}
	.st40{fill:#B7B6B7;}
	.st41{fill:#A6A6A2;}
	.st42{fill:#838380;}
	.st43{fill:#949490;}
	.st44{fill:#BCBCB2;}
</style>
<g>
	<path class="st0" d="M12.1,4.5c0.5-0.8,1.3-0.9,2.2-0.8c0.8,0,0.8,0,0.8-0.8c0-0.2,0-0.4,0-0.7c0-0.6,0.3-0.9,0.9-0.9
		c0.6,0,1.3,0,1.9,0c1.8,0,3.6,0,5.4,0c0.8,0,1.1,0.2,1.1,1.1c0,0.3,0,0.6,0,0.9c0,0.4,0.1,0.5,0.5,0.5c0.2,0,0.5,0,0.7,0
		c0.8-0.1,1.4,0.2,1.8,0.8c0.2,0.2,0.2,0.4,0.2,0.7c0,0.3,0,0.7,0.1,1c0,0.3,0.2,0.5,0.5,0.4c0.9,0,1.7,0,2.6,0
		c0.7,0,0.8,0.1,0.8,0.8c0,4.4,0,8.8,0,13.2c0,2.2,0,4.3,0,6.5c0,0.6-0.2,1-0.7,1.2c-0.1,0-0.1,0.1-0.2,0c-0.2-0.2-0.1-0.5-0.1-0.8
		c0-6.4,0-12.7,0-19.1c0-0.2,0-0.5-0.1-0.7c0,0-0.1-0.1-0.1-0.1c-0.9,0-1.7,0-2.6,0c-0.2,0.1-0.2,0.3-0.2,0.4c0.1,1.3-0.8,1.9-2,1.9
		c-4,0-7.9,0-11.9,0c-0.7,0-1.2-0.1-1.6-0.7c-0.3-0.3-0.4-0.7-0.3-1.2c0-0.4-0.1-0.5-0.5-0.5c-0.6,0-1.2,0-1.8,0
		C9.2,7.8,9,7.9,9,8.3c0,0.2,0,0.3,0,0.5c0,8,0,16,0,24c0,0.2,0,0.4,0,0.7c0,0.1,0,0.1,0.1,0.1c0.1,0.1,0.2,0.1,0.4,0.1
		c4.9,0,9.9,0,14.8,0c0.1,0,0.1,0,0.1,0.1c0.1,0.4-0.2,0.6-0.5,0.8c-0.3,0.1-0.6,0.1-0.8,0.1c-4.7,0-9.5,0-14.2,0
		c-0.2,0-0.3,0-0.5,0c-0.3,0-0.4-0.2-0.5-0.5c0-0.2,0-0.4,0-0.6c0-8.6,0-17.3,0-25.9c0-0.1,0-0.2,0-0.3c0-0.6,0.1-0.7,0.8-0.7
		c0.9,0,1.7,0,2.6,0c0.3,0,0.5-0.1,0.5-0.5c0-0.3,0-0.6,0-1C11.9,4.9,11.9,4.7,12.1,4.5z"/>
	<path class="st1" d="M12.1,4.5c0,0.2-0.1,0.5-0.1,0.7c-0.2,0.2-0.5,0.1-0.7,0.1c-1.7,0-3.4,0-5.1,0c-0.9,0-1.1,0.2-1.1,1.2
		c0,9.7,0,19.3,0,29c0,0.9,0.2,1.2,1.1,1.2c9.1,0,18.1,0,27.2,0c0.9,0,1.1-0.2,1.1-1.1c0-9.7,0-19.4,0-29.1c0-0.4,0-0.8-0.5-1.1
		c-0.2-0.1-0.4-0.1-0.6-0.1c-1.7,0-3.5,0-5.2,0c-0.2,0-0.4,0-0.6-0.1c0-0.2-0.1-0.5-0.1-0.7c2.2,0,4.3,0,6.5,0
		c0.8,0,1.4,0.6,1.5,1.4c0,0.1,0,0.2,0,0.3c0,9.8,0,19.7,0,29.5c0,0.9-0.6,1.8-1.8,1.8c-9.2,0-18.5,0-27.7,0c-1.2,0-1.7-0.6-1.7-1.7
		c0-9.9,0-19.8,0-29.7c0-1.1,0.6-1.6,1.6-1.6C7.9,4.5,10,4.5,12.1,4.5z"/>
	<path class="st2" d="M8.9,33.5c0-3.1,0-6.2,0-9.4c0-5.3,0-10.7,0-16c0-0.7-0.1-0.6,0.6-0.6c0.6,0,1.3,0,1.9,0
		c0.4,0,0.6,0.1,0.6,0.6C12,8.6,12.1,9,12.3,9.4c0.3,0.9,1,1.2,1.9,1.2c3.9,0,7.7,0,11.6,0c0.2,0,0.3,0,0.5,0c0.7,0,1.2-0.4,1.3-1.2
		c0.1-0.4,0.1-0.8,0.1-1.2c0-0.2,0-0.4,0.1-0.6c0.9,0,1.8,0,2.7,0c0,0.2,0.1,0.4,0.1,0.6c0,2.3,0,4.7,0,7c-0.1,0.3-0.2,0.2-0.3,0
		c-0.2-0.4-0.4-0.4-0.7-0.2c-0.4,0.3-0.9,0.6-1.3,0.8c-0.3,0.1-0.4,0.3-0.4,0.6c0,0.3,0,0.6-0.1,0.9c0,0.2-0.1,0.5-0.4,0.1
		c0-0.1,0-0.2,0-0.3c0-0.8,0-0.8-0.9-0.8c-4.5,0-9.1,0-13.6,0c-0.1,0-0.3,0-0.4,0c-0.3,0-0.4,0.1-0.4,0.4c0,0.3-0.1,0.6,0.1,0.9
		c0.2,0.2,0.4,0.1,0.6,0.1c4.2,0,8.4,0,12.6,0c0.3,0,0.5-0.1,0.8,0.2c-0.2,0.3-0.6,0.3-0.9,0.3c-0.6,0-1.1,0.2-1.6,0.6
		c0.5,0.1,0.9,0.2,1.4,0.2c0.2,0,0.4,0,0.6,0c0.2,0,0.4,0.1,0.3,0.3c-0.2,0.1-0.4,0.1-0.5,0.1c-0.8,0-1.6,0-2.4,0
		c-3.4,0-6.9,0-10.3,0c-0.1,0-0.3,0-0.4,0.1c-0.2,0.4-0.2,0.8,0,1.2c0.2,0.2,0.4,0.1,0.6,0.1c3.1,0,6.1,0,9.2,0
		c0.2,0,0.5-0.1,0.7,0.2c-0.2,0.3-0.4,0.3-0.7,0.3c-0.7,0-1.5,0.1-2.2,0.1c-0.5,0-1,0.2-1.5,0.5c0.8,0.3,1.5,0.1,2.3,0.4
		c-0.2,0.3-0.5,0.2-0.7,0.2c-2.4,0-4.7,0-7.1,0c-0.2,0-0.4-0.1-0.6,0.1c-0.2,0.4-0.1,0.8,0,1.2c0.1,0.1,0.3,0.1,0.4,0.1
		c0.8,0,1.6,0,2.4,0c0.9,0,1.7-0.1,2.6,0.1c0.2,0.1,0.1,0.2,0,0.3c-0.2,0.1-0.5,0.1-0.7,0.1c-0.8,0-1.5,0.1-2.3,0.1
		c-0.5,0-1,0.2-1.4,0.6c0.1,0.2,0.3,0.1,0.4,0.2c0.2,0.1,0.4,0,0.3,0.3c-0.4,0.2-0.8,0.1-1.2,0.1c-0.2,0-0.3,0-0.5,0
		c-0.2,0.3-0.5,0.4-0.8,0.4c-0.3,0-0.5,0.3-0.7,0.5c-0.1,0.1-0.3,0.2-0.4,0.3c-0.8,0.5-0.8,0.5-1.1-0.5C9,20.4,9,14.2,9,8
		c0,0.2,0,0.3,0,0.5c0,5.9,0,11.8,0,17.7c0,1.4,0,2.9,0.1,4.3c0,0.1,0,0.2,0.1,0.4c0.1,0.7,0,1.5,0,2.2c0,0.2,0,0.3-0.1,0.4
		C9,33.6,9,33.6,8.9,33.5z"/>
	<path class="st3" d="M34.1,5.2c0.4,0.1,0.5,0.4,0.6,0.8c0,0.1,0,0.3,0,0.4c0,9.7,0,19.4,0,29.2c0,1-0.2,1.2-1.2,1.2
		c-9.1,0-18.3,0-27.4,0c-0.9,0-1.1-0.3-1.1-1.1c0-9.8,0-19.6,0-29.4c0-0.9,0.3-1.1,1.1-1.1c2,0,4,0,6,0c0,0.3,0,0.6,0,0.9
		c-0.2,0.2-0.4,0.2-0.7,0.2c-1,0-2,0-3,0c-0.4,0-0.8,0.2-0.9,0.6C7.4,7,7.4,7.3,7.4,7.5c0,2.1,0,4.2,0,6.3c0,0.2,0,0.5-0.1,0.7
		C6.4,14.8,6,15.4,6,16.3c0,0.4-0.1,0.8-0.1,1.3c-0.1,5.8-0.1,11.5-0.1,17.3c0,0.2,0,0.4,0,0.7c0.1,0.3,0.3,0.2,0.5,0.3
		c0.9,0.1,1.7,0.1,2.6,0.1c8,0,16.1,0,24.1,0c0.7,0,0.7,0,0.7-0.7c0-8.6,0-17.1,0-25.7c0-0.9,0-1.8,0-2.7c0-0.6,0-0.6-0.6-0.6
		c-1.6,0-3.2,0-4.9,0c-0.5,0-0.6-0.1-0.6-0.6c0-0.3,0.1-0.4,0.4-0.4c0.6,0,1.2,0,1.8,0c1.3,0,2.6,0,3.9,0
		C33.8,5.2,33.9,5.2,34.1,5.2z"/>
	<path class="st4" d="M7.4,6.8c0.2-0.6,0.3-0.7,1-0.7c1.2,0,2.5,0,3.7,0c0,0.7,0,0.7-0.7,0.7c-0.9,0-1.8,0-2.7,0
		c-0.3,0-0.5,0.1-0.5,0.4c0,8.9,0,17.9,0,26.8c0,0.3,0.1,0.4,0.4,0.4c5,0,9.9,0,14.9,0c0.6,0,0.8-0.2,1-0.8c0,0-0.1-0.1-0.1-0.1
		c0-0.5,0.1-1,0-1.5c0-0.8,0-1.6-0.1-2.4c0-0.2,0-0.3,0-0.5c0.2-0.3,0.4-0.2,0.7-0.2c0.8,0,1.6,0.1,2.4,0c0.5-0.1,1.1,0,1.6-0.1
		c0.5-0.1,1-0.2,1.5-0.4c0.1,0,0.1,0,0.2,0c0.5-0.3,0.8-0.7,0.8-1.4c0-6.6,0-13.1,0-19.7c0-0.4-0.1-0.6-0.6-0.6c-1.1,0-2.2,0-3.3,0
		c0-0.2,0-0.5,0-0.7c1.4-0.1,2.7,0,4.1,0c0.3,0,0.5,0.2,0.6,0.4c0.1,0.2,0.1,0.4,0.1,0.7c0,1.4,0,2.8,0,4.2c0,2.2,0,4.5,0,6.7
		c0,1.9,0,3.7,0,5.6c0,3.5,0,7,0,10.5c0,0.8-0.4,1.2-1.3,1.2c-2.9,0-5.7,0-8.6,0c-0.3,0-0.6,0-0.9,0c-3.1,0-6.1,0-9.2,0
		c-0.2,0-0.3,0-0.5,0c-1.1,0-2.1,0-3.2,0c-0.2,0-0.4,0-0.6,0c-0.7-0.1-1-0.4-1-1.1c0-1.6,0-3.2,0-4.8c0-1,0-2,0-3
		c0-3.8,0-7.6,0-11.5c0.1-2.6,0-5.1,0.1-7.7C7.3,7.1,7.3,6.9,7.4,6.8z"/>
	<path class="st5" d="M7.3,26.5c0,2.4,0,4.9,0,7.3c0,1.3,0.1,1.4,1.4,1.4c1.1,0,2.1,0,3.2,0c0,0.2-0.2,0.2-0.3,0.2
		c-0.9,0-1.7,0-2.3,0.4c2.5,0,5.3,0,8,0c5.2,0,10.4,0,15.6,0c0.5,0,0.6,0,0.6-0.7c0-3.8,0-7.5,0-11.3c0-0.9,0-1.7,0-2.6
		c0-1.8,0-3.6,0-5.3c0-2.1,0-4.2,0-6.3c0,0.8-0.6,1.3-1.2,1.7c-0.1,0-0.2,0-0.2,0c0-1.4,0-2.8,0-4.2c0-0.8-0.2-1.1-1-1.1
		c-1.2,0-2.4,0-3.6,0c-0.2-0.3-0.1-0.6-0.1-0.9c2,0,4.1,0,6.1,0c0.1,0,0.3,0,0.4,0.1c-2,0-4,0-6,0c-0.3,0-0.5,0-0.5,0.4
		C27.6,6,27.8,6,28.1,6c1.8,0,3.5,0,5.3,0c0.4,0,0.5,0.1,0.5,0.5c0,9.7,0,19.4,0,29.1c0,0.4-0.1,0.5-0.5,0.5c-8.9,0-17.7,0-26.6,0
		c-0.3,0-0.6-0.1-1-0.1c-0.3,0-0.2-0.2-0.2-0.4c0.1-0.1,0-0.3,0-0.5c0-1.8,0-3.5,0-5.3c0-0.1,0-0.2,0.1-0.1c0.6,0.2,0.8-0.3,1.2-0.5
		c0.2-0.1,0.1-0.3,0.1-0.5c0-0.6,0-1.1,0-1.7C7.2,26.8,7.1,26.6,7.3,26.5z"/>
	<path class="st6" d="M26.9,7.3c0,0.3,0,0.7,0,1c0,0.6-0.3,0.9-0.9,0.9c-4.1,0-8.3,0-12.4,0c-0.6,0-0.8-0.3-0.8-0.9
		c0.3-0.3,0.7-0.3,1-0.3c0.6,0,1.2,0,1.8,0c2,0,4.1,0,6.1,0c1.5,0,3.1-0.1,4.6,0c0.1,0,0.2,0,0.3-0.1c0.1-0.1,0.1-0.2,0.1-0.3
		c0-0.1,0-0.1,0.1-0.2C26.8,7.3,26.8,7.3,26.9,7.3z"/>
	<path class="st7" d="M27.8,7.6c0,0.7,0.1,1.3-0.1,2c-0.2,0.7-0.7,1.1-1.5,1.1c-4.2,0-8.3,0-12.5,0c-0.8,0-1.4-0.5-1.5-1.3
		c0.4,0.4,1,0.6,1.6,0.6c4,0,7.9,0,11.9,0c1.3,0,1.8-0.5,1.8-1.8C27.6,8,27.4,7.6,27.8,7.6z"/>
	<path class="st8" d="M23.8,4.4c0.7,0,1.5,0,2.2,0c0.4,0,0.7,0.2,0.8,0.6c0,0,0,0.1,0,0.1c0,0.3-0.3,0.5-0.5,0.4
		c-0.7-0.2-1.4-0.1-2.2-0.2c-2.3-0.3-4.5-0.2-6.8-0.1c-1.1,0-2.2,0.2-3.4,0.2c-0.2,0-0.3,0.1-0.5,0.2c-0.3,0.1-0.5,0.1-0.7-0.2
		c-0.1-0.1-0.1-0.2,0-0.3c0.2-0.4,0.5-0.6,0.9-0.6c0.7,0,1.5,0,2.2,0c0.2-0.1,0.4-0.2,0.7-0.2c2.2,0,4.3,0,6.5,0
		C23.3,4.2,23.6,4.3,23.8,4.4z"/>
	<path class="st9" d="M23.8,4.4c-2.6,0-5.2,0-7.9,0c0-0.5,0-1,0-1.4c0-0.2,0-0.3,0.1-0.4c0,0,0.1,0.1,0.1,0.1
		c0.2,0.6,0.2,0.6,0.8,0.6c2,0,3.9,0,5.9,0c0.2,0,0.4,0.1,0.6-0.1c0-0.1,0-0.2,0-0.3c0-0.1,0-0.3,0.1-0.4c0.2,0.3,0.1,0.6,0.1,0.9
		C23.7,3.6,23.6,4,23.8,4.4z"/>
	<path class="st10" d="M23.6,3.1c0,0.2-0.1,0.3-0.3,0.3c-2.3,0-4.6,0-6.9,0c-0.3,0-0.4-0.1-0.4-0.4c0-0.1,0-0.3,0-0.4
		c0.1-0.2,0.3-0.3,0.5-0.3c2.2,0,4.4,0,6.6,0c0.2,0,0.4,0,0.4,0.2c0,0.1,0,0.3,0,0.4C23.3,3,23,2.9,22.7,2.9c-2.1,0-4.2,0-6.3,0
		C17,3,17.5,3,18,3c1.7,0,3.5,0.1,5.2-0.1C23.3,2.9,23.4,3,23.6,3.1z"/>
	<path class="st11" d="M26.8,7.8c0,0.3-0.1,0.4-0.4,0.4c-1.3-0.1-2.6-0.1-4,0c-0.5,0.1-1.1,0-1.6,0c-1.7,0-3.5,0-5.2,0
		c-0.8,0-1.6,0.1-2.5,0.1c-0.1,0-0.2,0-0.4,0.1c0,0,0-0.1,0-0.1c-0.1-0.1-0.1-0.3,0-0.4c0.1-0.2,0.3-0.2,0.5-0.2
		c1.1,0.2,2.3,0.1,3.4,0.1c0.6,0,1.2,0,1.7,0c2.4,0,4.7-0.1,7.1-0.1c0.2,0,0.3,0,0.5-0.1C26.4,7.6,26.6,7.5,26.8,7.8z"/>
	<path class="st2" d="M30.7,28.4C30.7,28.4,30.7,28.4,30.7,28.4c-0.3-0.2-0.2-0.5-0.2-0.7c0-1.5,0-3,0-4.6c0-0.1,0-0.3,0-0.4
		c-0.1-5,0.1-9.9,0.1-14.9c0-0.1,0-0.2,0-0.3c0.1,0.1,0.1,0.3,0.1,0.5C30.7,14.9,30.7,21.7,30.7,28.4z"/>
	<path class="st12" d="M30.7,7.6c0,5,0,9.9,0,14.9c0,0.2,0,0.4,0,0.6c-0.1,0-0.1,0-0.2-0.1c-0.1-0.2-0.1-0.5-0.1-0.7
		c0-2.1,0-4.2,0-6.3c0-0.3-0.1-0.5,0.1-0.8c0-2.2,0-4.5,0-6.7c0-0.3,0.2-0.6-0.2-0.8C30.3,7.8,30.5,7.7,30.7,7.6
		C30.6,7.6,30.6,7.6,30.7,7.6z"/>
	<path class="st13" d="M24.4,33.6c0,0,0,0.1,0,0.1c0,0-0.1,0-0.1,0c-0.2,0.1-0.3,0-0.5,0c-4.8,0-9.7,0-14.5,0c-0.2,0-0.3,0-0.5-0.1
		c0,0,0-0.1,0-0.1c0,0,0.1,0,0.1,0c0.2-0.1,0.4-0.1,0.6-0.1c1.3,0,2.6,0,3.8,0c1,0,2.1,0,3.1,0c1.7,0,3.4,0,5.1,0c0.4,0,0.9,0,1.3,0
		C23.5,33.5,24,33.3,24.4,33.6z"/>
	<path class="st14" d="M8.9,33.6c4.6,0,9.2,0,13.9,0c0.5,0,1,0,1.6,0c-0.1,0.1-0.3,0.1-0.5,0.1c-4.8,0-9.6,0-14.4,0
		C9.2,33.8,9,33.8,8.9,33.6z"/>
	<path class="st6" d="M12.8,7.9c0,0.1,0,0.3,0,0.4C12.6,8.2,12.7,8,12.8,7.9c-0.1-0.9-0.1-1.7-0.1-2.5c0-0.1,0-0.3,0.1-0.4
		c0,0.1,0,0.2,0,0.3c0.1,0.2,0.1,0.4,0.1,0.7c0,0.4,0,0.8,0,1.3c0,0.2,0,0.3,0,0.5C12.9,7.8,12.8,7.8,12.8,7.9z"/>
	<path class="st8" d="M26.9,7.3C26.8,7.3,26.8,7.3,26.9,7.3c-0.2-0.1-0.2-0.2-0.2-0.3c0-0.5,0-0.9,0-1.4c0-0.2,0.1-0.4,0.1-0.7l0,0
		c0.2,0.5,0.1,1,0.1,1.6C26.9,6.8,26.9,7.1,26.9,7.3z"/>
	<path class="st15" d="M13.4,33.5c-1.5,0-3,0-4.5,0c0.2-0.4,0.1-0.8,0.1-1.2c0-0.5,0-1,0-1.5c-0.1-1,0-2,0-3c0-0.4-0.1-0.8,0-1.2
		c0.3,0,0.2,0.3,0.3,0.5c0.9-0.1,1.4-1.2,2.5-1.1c0.1-0.1-0.1-0.3,0.1-0.4c0.2,0.3,0.1,0.6,0.1,0.9c0,0.4,0.1,0.5,0.5,0.5
		c2.9,0,5.9,0,8.8,0c0.3,0,0.5-0.1,0.5-0.5c0-0.2,0-0.3,0-0.5c0-0.2-0.1-0.3-0.4-0.4c-0.2,0-0.3,0-0.5,0c-2.1,0-4.3,0-6.4,0
		c-0.3,0-0.5,0.1-0.8-0.2c-0.2-0.2-0.5-0.2-0.7-0.2c-0.1,0-0.3,0-0.3-0.2c-0.1-0.2,0.1-0.2,0.2-0.3c0.5-0.4,1.1-0.6,1.7-0.6
		c0.8-0.1,1.5-0.1,2.3-0.1c0.2,0,0.4-0.1,0.5-0.2c0.2-0.2,0.5-0.1,0.8-0.1c2.9,0,5.8,0,8.7,0c0.1,0,0.3,0,0.4,0
		c0.6,0,0.6-0.1,0.6-0.7c0-0.6,0-0.6-0.7-0.6c-4.9,0-9.8,0-14.7,0c-0.3,0-0.6,0.1-0.9-0.1c0.2-0.2,0.4-0.1,0.5-0.1c2.5,0,5,0,7.5,0
		c0.2,0,0.3,0,0.5,0c-0.7,0-1.4-0.2-2-0.2c-0.1,0-0.3,0-0.4-0.1c-0.1-0.2,0.1-0.2,0.2-0.3c0.5-0.4,1.2-0.5,1.8-0.5
		c0.7,0,1.4-0.1,2.1-0.1c0.2,0,0.3,0,0.5-0.2c-1.3,0-2.7,0-4,0c-2.1,0-4.2,0-6.3,0c-0.2,0-0.4,0.1-0.5-0.1c0.2-0.2,0.5-0.1,0.8-0.1
		c4,0,8,0,11.9,0c0.1,0,0.2,0,0.3,0c0.8,0,0.8,0,0.8-0.8c0-0.2,0-0.4,0.1-0.7c-0.1-0.2-0.2-0.2-0.3-0.2c-0.6,0.1-1.3-0.1-1.9-0.1
		c-0.1,0-0.3,0-0.3-0.1c-0.1-0.2,0.1-0.3,0.2-0.3c0.5-0.3,1-0.6,1.6-0.5c0.3,0,0.6,0,1-0.2c-0.2,0-0.4,0-0.6,0c-4.4,0-8.7,0-13.1,0
		c-0.2,0-0.4,0.1-0.5-0.1c0.2-0.2,0.5-0.1,0.8-0.1c4.5,0,9,0,13.4,0c0.5,0,0.9,0,1.4,0c0.4-0.4,0.2-0.8,0.2-1.2
		c0-0.4,0.1-0.5,0.4-0.7c0.5-0.3,1-0.6,1.5-0.9c0.5-0.3,0.6-0.3,0.8,0.3c0,0.1,0.1,0.1,0.1,0.2c0,2.6,0,5.2,0,7.9
		c0.1,0.2,0,0.3,0,0.5c-0.1,0.3-0.4,0.5-0.6,0.7c-3.4,2-6.7,4.1-10.1,6.2c-1.2,0.8-2.5,1.5-3.7,2.3c-0.7,0.5-1.4,0.7-2.3,0.7
		C13.8,33.5,13.6,33.5,13.4,33.5z"/>
	<path class="st16" d="M20.2,13.1c2.6,0,5.1,0,7.7,0c0.4,0,0.5,0.1,0.5,0.5c0,1.1,0,1.1-1.1,1.1c-4.9,0-9.8,0-14.7,0
		c-0.6,0-0.6,0-0.6-0.6c0-1,0-1,1-1C15.4,13.1,17.8,13.1,20.2,13.1z"/>
	<path class="st17" d="M12,22.6c5.3,0,10.6,0,15.9,0c0.4,0,0.5,0.1,0.5,0.5c0,1.3,0.2,1.1-1.1,1.1c-3.2,0-6.4,0-9.6,0
		c-0.9,0-1.8,0-2.6,0c-0.7-0.1-1.4,0-2.2,0c-0.3,0-0.6,0-0.9,0C12,23.6,12,23.1,12,22.6z"/>
	<path class="st16" d="M27.6,17.7c-0.1,0.3-0.3,0.2-0.5,0.2c-4.6,0-9.2,0-13.8,0c-0.4,0-0.9,0-1.3,0c0-0.4,0-0.9,0-1.3
		c0-0.2,0.1-0.3,0.3-0.3c0.1,0,0.2,0,0.3,0c4.8,0,9.5,0,14.3,0c0.7,0,0.7,0,0.7,0.7C27.6,17.2,27.6,17.4,27.6,17.7z"/>
	<path class="st18" d="M25.9,19.4c0.2,0.5,0.1,1,0.1,1.4c0,0.1-0.1,0.2-0.2,0.2c-0.1,0-0.2,0-0.3,0c-4.5,0-9,0-13.5,0
		c0-0.5,0-1,0-1.5c0.2-0.1,0.3,0,0.5,0c3.3,0,6.6,0,10,0c0.2,0,0.3,0,0.5,0C24,19.4,25,19.4,25.9,19.4z"/>
	<path class="st19" d="M14,25.7c2.5,0,5.1,0,7.6,0c0.4,0,0.6,0.1,0.5,0.6c0,1.1,0,1.1-1.1,1.1c-2.9,0-5.7,0-8.6,0
		c-0.4,0-0.6-0.1-0.5-0.5c0-0.4,0-0.7,0-1.1C12.7,25.7,13.3,25.7,14,25.7z"/>
	<path class="st20" d="M9.1,26.7c0,1.4,0,2.8,0,4.2C8.9,30.8,9,30.6,9,30.5C9,23,9,15.6,9,8.1C9,8,9,7.9,9,7.8c0,0,0.1,0,0.1,0
		C9.1,14.1,9.1,20.4,9.1,26.7z"/>
	<path class="st15" d="M23,19.4c-0.2,0.2-0.4,0.1-0.5,0.1c-3.5,0-7,0-10.4,0c0.1-0.1,0.3-0.1,0.4-0.1C16,19.4,19.5,19.4,23,19.4z"/>
	<path class="st15" d="M12,24.1c0.8,0,1.7,0,2.5,0c0.2,0,0.3-0.1,0.5,0.1c-0.9,0-1.7,0-2.6,0C12.3,24.2,12.1,24.2,12,24.1z"/>
	<path class="st21" d="M5.8,29.7c0,1.8,0,3.6,0,5.4c0,0.2,0.1,0.4-0.1,0.5c0-4.6,0-9.2,0-13.8c0-1.6,0-3.3,0.1-4.9
		c0-0.8,0.1-1.7,0.9-2.2c0.2-0.2,0.4-0.2,0.6-0.1c0.1,0.1,0,0.2,0,0.4c0,2.4,0,4.9,0,7.3c0,0.2,0.1,0.4-0.3,0.4
		c-0.4,0-1.1,0.9-1.1,1.3c0,1.7,0,3.4,0,5.1C5.9,29.2,6,29.5,5.8,29.7z"/>
	<path class="st22" d="M5.8,29.7c0-2,0-4,0-6c0-0.3,0-0.5,0.4-0.7c0.2-0.1,0.4-0.3,0.6-0.5c0.2-0.2,0.4-0.4,0.6,0.2
		c0-2.8,0-5.5,0-8.2c0-2.4,0-4.8,0-7.3c0-0.2-0.1-0.3,0.1-0.5c0,0.1,0,0.3,0,0.4c0,6.3,0,12.6,0,18.9c0,0.1,0,0.3,0,0.4
		c-0.1,0.8,0,1.5-0.1,2.3c0,0.3,0,0.6-0.4,0.6c-0.1,0-0.2,0.1-0.3,0.2C6.4,30,6.1,30,5.8,29.7z"/>
	<path class="st12" d="M13.4,33.5c0.1-0.2,0.2-0.2,0.4-0.2c1,0.1,1.9-0.4,2.7-0.9c1.2-0.8,2.5-1.6,3.8-2.3c1.9-1.2,3.8-2.4,5.7-3.5
		c1.3-0.8,2.5-1.6,3.8-2.3c0.3-0.2,0.4-0.4,0.7-0.6c0.1,0.7,0.1,1.3,0,2c0,0.3-0.3,0.6-0.5,0.7c-1.1,0.7-2.3,1.5-3.5,2.2
		c-0.4,0.2-0.8,0.4-1.2,0.4c0.5-0.1,1.1-0.1,1.7-0.1c0.2,0,0.4,0,0.5,0.1c-0.8,0.1-1.6,0-2.4,0.1c-0.2,0-0.5-0.1-0.7,0.1
		c-0.1,0.8-0.6,1.2-1.3,1.6c-1.3,0.7-2.4,1.5-3.7,2.3c-0.5,0.3-1.1,0.5-1.7,0.5c-0.4,0-0.8-0.1-1.2,0.1
		C15.5,33.6,14.5,33.5,13.4,33.5z"/>
	<path class="st23" d="M33.8,21.3c0,4.7,0,9.4,0,14.1c0,0.4-0.1,0.6-0.6,0.6c-5.3,0-10.6,0-15.8,0c0-0.3,0.2-0.3,0.4-0.3
		c0.5-0.1,1-0.1,1.5-0.4c0.1-0.1,0.3,0,0.5,0c0.6,0,1.2,0,1.8,0c3.1,0,6.3,0,9.4,0c1,0,1.2-0.2,1.2-1.2c0-3.5,0-6.9,0-10.4
		c0.1-0.2,0.3-0.3,0.4-0.4c0.5-0.4,0.8-0.9,0.8-1.5C33.5,21.5,33.5,21.3,33.8,21.3z"/>
	<path class="st24" d="M16.6,33.6c0.1-0.2,0.3-0.2,0.5-0.2c0.3,0,0.7,0,1,0c0.4,0,0.8-0.1,1.2-0.3c1.5-0.9,3-1.9,4.5-2.8
		c0.3-0.2,0.5-0.5,0.5-0.9c0-0.1-0.1-0.3,0.2-0.2c0.1,0.9,0.1,1.9,0.1,2.8c-0.1,0.3,0,0.7-0.1,1.1c-0.3-0.1-0.1-0.4-0.3-0.6
		c-0.4,0.2-0.7,0.4-1,0.5c-0.3,0.1-0.1,0.3-0.1,0.5C20.9,33.6,18.7,33.6,16.6,33.6z"/>
	<path class="st25" d="M32.3,11.3c0.8-0.5,1.3-1.1,1.4-2c0,0,0.1,0,0.1,0c0,2.2,0,4.4,0,6.5c-0.1,0.2-0.1,0.4-0.1,0.6
		c-0.1,0.7-0.8,1.5-1.4,1.6C32.3,15.8,32.3,13.6,32.3,11.3z"/>
	<path class="st26" d="M32.3,18c0.8-0.4,1.3-0.9,1.3-1.8c0-0.1,0.1-0.3,0.2-0.4c0,1.8,0,3.6,0,5.4c-0.1,0.2-0.2,0.4-0.2,0.6
		c-0.1,0.9-0.7,1.3-1.3,1.8C32.3,21.8,32.3,19.9,32.3,18z"/>
	<path class="st24" d="M27.6,29c-0.8,0-1.6,0-2.5,0c1.7-0.4,2.9-1.5,4.3-2.3c0.2-0.1,0.4-0.3,0.6-0.4c0.4-0.2,0.6-0.6,0.6-1.1
		c0-0.5,0-1.1,0-1.6c0-0.2,0-0.4,0-0.6c0,0,0.1,0,0.1,0c0,1.8,0,3.5,0,5.3c-0.6,0.4-1.4,0.5-2.1,0.6C28.2,29,27.9,29,27.6,29z"/>
	<path class="st27" d="M21.7,35.2c-0.5,0.2-1.1,0-1.6,0.1c-0.3,0-0.6,0-0.9,0.2c-0.3,0.2-0.7,0.2-1.1,0.2c-0.2,0-0.4,0.1-0.6,0.2
		c-2.9,0-5.8,0-8.8,0c0.2-0.1,0.3-0.2,0.4-0.2c0.3-0.1,0.7-0.1,1-0.4c0.1-0.1,0.3-0.1,0.4-0.1c0.5,0,1,0.1,1.5-0.1
		C15.2,35.2,18.4,35.2,21.7,35.2z"/>
	<path class="st28" d="M25.3,33.5c0-1.1,0-2.1,0-3.2c0-0.4,0.1-0.5,0.5-0.4c0.4,0,0.8,0,1.3,0c0.7,0,1.4-0.1,2.2-0.1
		c0.2-0.1,0.4-0.1,0.2,0.2c-0.4,0.8-1,1.4-1.8,1.8c-0.1,0.1-0.2,0.2-0.4,0c0-0.5,0.6-0.6,0.8-1c-0.6-0.1-1.1,0.1-1.6,0.1
		c-0.2,0-0.2,0.1-0.2,0.3c0,0.5-0.1,0.9,0.1,1.3C26.2,33,25.8,33.3,25.3,33.5z"/>
	<path class="st29" d="M25.3,33.5c0.4-0.3,0.8-0.5,1-0.9c0.2-0.3,0.6-0.6,0.9-0.7c0.6-0.3,1.2-0.7,1.6-1.2c0.2-0.2,0.3-0.6,0.6-0.8
		c-0.1,0-0.2,0-0.3,0c0.6-0.2,1.2-0.2,1.7-0.5c-0.1,0.4-0.3,0.6-0.5,0.8c-1.3,1.4-2.7,2.7-4.5,3.5c-0.1,0.1-0.3,0.1-0.4,0.2
		c-0.1,0-0.2,0.1-0.3,0C25.2,33.7,25.2,33.6,25.3,33.5z"/>
	<path class="st30" d="M31.5,32.3c0,0.6,0,1.2,0,1.8c0,0.2-0.1,0.3-0.3,0.3c-1.1,0-2.2,0-3.3,0c0.1-0.3,0.4-0.2,0.5-0.2
		c0.3,0,0.5-0.1,0.7-0.3c0.3-0.4,0.8-0.2,1.1-0.3c0.1,0,0.2,0,0.3-0.1c0,0,0-0.1,0-0.1c0-0.1,0-0.2,0.1-0.2
		C30.9,32.8,31.3,32.6,31.5,32.3z"/>
	<path class="st31" d="M30.5,33.7c-0.1,0.1-0.2,0.1-0.3,0.1c-0.4,0-0.8,0-1,0.5c-0.1,0.1-0.2,0.1-0.3,0.1c-0.3,0-0.6-0.1-0.9,0.1
		c-0.5,0-1.1,0-1.7,0c0.6-0.3,1-0.6,1.6-0.9c0.2-0.1,0.4-0.1,0.7-0.1c0.1,0,0.2,0,0.3,0c0.4,0.1,0.8,0,1.2,0.1
		C30.1,33.5,30.3,33.5,30.5,33.7z"/>
	<path class="st32" d="M28.4,33.6c-0.2,0-0.4,0-0.7,0c0.4-0.4,1-0.7,1.4-1.1c0.5-0.5,1.2-0.9,1.6-1.5c0.3,0.3,0.1,0.7,0.2,1
		c0,0.4,0.1,0.8-0.1,1.2c0,0.1,0,0.2,0,0.3c-0.3-0.2-0.2-0.5-0.2-0.7c0-0.2,0-0.3,0-0.5c0-0.1,0-0.1,0-0.2
		C29.8,32.5,29.2,33.2,28.4,33.6z"/>
	<path class="st33" d="M23,33.5c-0.4-0.2-0.3-0.4,0.1-0.6c0.4-0.2,0.8-0.4,1.2-0.7c0,0.3,0,0.5,0.1,0.8c0.2-0.4-0.1-0.7,0.2-1
		c0,0.5,0,1-0.1,1.5C23.9,33.6,23.5,33.6,23,33.5z"/>
	<path class="st34" d="M30.8,33.2c0-0.4,0-0.8,0-1.2c0.1-0.2,0.2-0.6,0.6-0.5c0-0.3-0.2-0.6,0.2-0.8c0,0.6,0,1.1,0,1.7
		C31.5,32.8,31,32.8,30.8,33.2z"/>
	<path class="st35" d="M31.5,30.6C31.5,30.7,31.5,30.7,31.5,30.6c-0.1,0.5-0.3,0.9-0.7,1.3c0-0.3,0-0.7,0-1c0.2-0.3,0.5-0.6,0.7-0.9
		C31.6,30.2,31.5,30.4,31.5,30.6z"/>
	<path class="st36" d="M26.8,7c0,0.1,0,0.2,0,0.3c0,0.1,0,0.1,0,0.2c-0.9,0.2-1.8,0.2-2.7,0.2c-3.3,0-6.6,0.1-9.9,0.1
		c-0.5,0-0.9-0.3-1.4-0.1c0-0.2,0-0.3,0-0.5c0.2-0.3,0.5-0.4,0.8-0.2c0.3,0.2,0.5,0.2,0.8,0.2c0.6,0,1.1,0,1.6-0.1
		c0.1,0,0.2,0,0.3,0c2.9,0,5.9,0,8.8,0c0.3,0,0.7,0,1-0.2C26.3,6.8,26.6,6.8,26.8,7z"/>
	<path class="st8" d="M12.8,7.7c0.2-0.2,0.5-0.3,0.8-0.1c0.1,0.1,0.3,0.1,0.4,0.1c2.1,0,4.2,0.1,6.2,0c1.8-0.1,3.6,0,5.5-0.1
		c0.1,0,0.3,0,0.4-0.1c0.2-0.2,0.5-0.1,0.7,0c0,0.1,0,0.2,0,0.3c-0.1-0.1-0.3-0.1-0.5-0.1c-1.8,0.2-3.6,0-5.3,0.1
		c-2.3,0.2-4.7,0-7,0.1c-0.4,0-0.8-0.3-1.2,0C12.8,7.8,12.8,7.8,12.8,7.7z"/>
	<path class="st37" d="M26.8,5c0,0.2,0,0.4,0,0.7c-0.1,0.2,0,0.4-0.3,0.5c-0.3,0-0.4-0.1-0.5-0.3c-0.1-0.3-0.3-0.3-0.6-0.3
		c-0.7,0-1.3,0.1-2,0.1c-0.9,0-1.7,0-2.6,0c-2.2-0.1-4.4,0.2-6.6,0.1c-0.2,0-0.5,0-0.6,0.3c0,0.1,0,0.1-0.1,0.2
		c-0.3,0.2-0.6,0.2-0.8-0.2c0-0.2,0-0.4,0-0.7c0.3,0.2,0.5,0.3,0.8,0c0.1-0.1,0.2-0.1,0.3-0.1c1.5,0.1,3.1-0.2,4.6-0.2
		c1.5,0,3,0.1,4.5,0c0.3,0,0.5,0.3,0.8,0.2c0.6-0.1,1.2,0,1.8,0c0.1,0,0.3,0,0.4,0.1C26.4,5.5,26.6,5.3,26.8,5z"/>
	<path class="st38" d="M23.6,3.1c-2.1,0.2-4.2,0-6.3,0.1c-0.3,0-0.6-0.1-0.9-0.1c-0.1,0-0.2-0.1-0.2-0.2c0-0.2,0.1-0.1,0.2-0.1
		c2.4,0,4.8,0,7.2,0C23.6,2.9,23.6,3,23.6,3.1z"/>
	<path class="st39" d="M12.8,5.9c0.2,0.2,0.5,0.2,0.7,0.2c0.1,0.7,0.6,0.7,1.2,0.7c1.7,0,3.4,0,5.2,0c1.8-0.1,3.7-0.1,5.5-0.1
		c0.2,0,0.5,0.1,0.5-0.3c0-0.3-0.3-0.3-0.5-0.4c-0.6-0.1-1.2,0.1-1.8,0.1c-3.1,0-6.2,0-9.3,0c-0.3,0-0.5,0-0.8-0.1
		c0-0.3,0-0.5,0.4-0.5c2.3,0.1,4.6-0.1,6.9-0.1c0.8,0,1.5,0,2.3,0c0.8,0,1.6-0.1,2.4-0.1c0.2,0,0.5,0,0.5,0.3c0.1,0.2,0,0.4,0.3,0.4
		c0.3,0,0.2-0.3,0.4-0.4c0,0.5,0,0.9,0,1.4c-0.3-0.1-0.6-0.2-0.7,0.2c-0.1,0.2-0.3,0.1-0.5,0.1c-2.3,0-4.7,0-7,0
		c-1.5,0-3,0.1-4.5,0.1c-0.2,0-0.4,0-0.6-0.2c-0.2-0.3-0.5,0-0.7,0C12.8,6.8,12.8,6.4,12.8,5.9z"/>
	<path class="st40" d="M27.3,31.9c-0.3,0.3-0.6,0.5-0.9,0.7c-0.1,0-0.2-0.1-0.2-0.2c0-0.4,0-0.9,0-1.3c0-0.1,0-0.3,0.2-0.3
		c0.6,0,1.3-0.2,2-0.1C28.1,31.2,27.5,31.4,27.3,31.9z"/>
	<path class="st41" d="M30.7,32.7c0,0.3-0.1,0.5,0.1,0.8c0,0,0,0,0,0.1c-0.3,0.1-0.6,0-0.9,0.1c-0.2,0-0.1-0.2-0.1-0.2
		C30.1,33.2,30.3,32.8,30.7,32.7z"/>
	<path class="st32" d="M29.7,33.6c0.3,0,0.7,0,1,0c0,0.1-0.2,0.1-0.3,0.1c-0.6-0.1-1.2,0.1-1.8-0.1c0.1-0.1,0.3-0.1,0.4-0.1
		C29.3,33.5,29.5,33.4,29.7,33.6z"/>
	<path class="st42" d="M29.1,33.6c-0.1,0-0.3,0-0.4,0c-0.1,0-0.2,0-0.3,0c0.7-0.6,1.5-1.2,2.2-1.8c0.1,0.1,0.1,0.2,0.1,0.3
		c0,0.3-0.2,0.5-0.4,0.6C29.9,33,29.5,33.4,29.1,33.6z"/>
	<path class="st43" d="M29.1,33.6c0.3-0.3,0.7-0.6,1.1-0.9c0.2-0.1,0.4-0.3,0.5-0.5c0,0.2,0,0.4,0,0.6c-0.2,0.4-0.7,0.5-0.9,0.8
		C29.5,33.6,29.3,33.6,29.1,33.6z"/>
	<path class="st44" d="M13.5,6c3.2,0,6.3,0,9.5,0c0.9,0,1.7-0.1,2.6-0.1c0.3,0,0.5,0.1,0.5,0.5c0,0.3-0.1,0.5-0.4,0.5
		c-0.7,0-1.4,0-2.1,0C20.5,7,17.5,7,14.4,7C13.5,7,13.5,7,13.5,6C13.5,6.1,13.5,6,13.5,6z"/>
</g>
</svg>
