<?xml version="1.0" encoding="utf-8"?>
<!-- Generator: Adobe Illustrator 23.1.0, SVG Export Plug-In . SVG Version: 6.00 Build 0)  -->
<svg version="1.1" id="Capa_1" xmlns="http://www.w3.org/2000/svg" xmlns:xlink="http://www.w3.org/1999/xlink" x="0px" y="0px"
	 viewBox="0 0 40 40" style="enable-background:new 0 0 40 40;" xml:space="preserve">
<style type="text/css">
	.st0{fill:#4285F4;}
	.st1{fill:#F35A3D;}
	.st2{fill:#FBFBF9;}
	.st3{fill:#FAFAF9;}
</style>
<path class="st0" d="M9,13.1"/>
<g>
	<g>
		<path class="st1" d="M2.8,2.8c11.2,0,22.5,0,33.7,0c0.6,0,0.7,0.1,0.7,0.7c0,11,0,22,0,33.1c0,0.6-0.1,0.7-0.7,0.7
			c-11,0-22,0-33.1,0c-0.6,0-0.7-0.1-0.7-0.7C2.8,25.3,2.8,14,2.8,2.8z"/>
		<path class="st2" d="M22.6,21.7c0-0.7,0-1.4,0-2.1c0-1,0-2,0-2.9c0-0.4,0.1-0.7,0.6-0.7c0.5,0,0.6,0.3,0.6,0.7c0,0.3,0,0.6,0,0.9
			c0,1.8,0,3.6,0,5.3c0,0.4,0.1,0.9-0.4,1.1c-0.5,0.2-0.7-0.2-1-0.5c-1.6-1.6-3.1-3.2-4.7-4.9c-0.2-0.2-0.3-0.4-0.5-0.4
			c-0.2,0.2-0.1,0.5-0.1,0.8c0,1.3,0,2.7,0,4c0,0.4,0,0.9-0.6,0.9c-0.5,0-0.6-0.5-0.6-0.9c0-2.2,0-4.3,0-6.5c0-0.3,0.1-0.6,0.4-0.8
			c0.4-0.2,0.6,0.1,0.8,0.3c1.6,1.6,3.2,3.2,4.7,4.9c0.2,0.2,0.3,0.5,0.5,0.7C22.3,21.8,22.4,21.7,22.6,21.7z"/>
		<path class="st2" d="M5.9,20c0-2.4,1.8-4.2,4.2-4.2c2.4,0,4.2,1.8,4.2,4.2c0,2.3-1.8,4.1-4.1,4.2C7.7,24.2,5.9,22.4,5.9,20z"/>
		<path class="st3" d="M26.7,18c0,1.6,0,3.1,0,4.5c0,0.3,0,0.5,0,0.8c0,0.4-0.1,0.7-0.6,0.7c-0.5,0-0.6-0.3-0.6-0.8
			c0-1.1,0-2.3,0-3.4c0-1.1,0-2.1,0-3.2c0-0.4,0.1-0.6,0.4-0.8c0.3-0.1,0.5,0.1,0.8,0.3c2.3,2.2,4.7,4.4,7,6.7
			c0.3,0.3,0.6,0.6,0.2,1c-0.4,0.4-0.7,0.1-1-0.2c-1.8-1.7-3.5-3.4-5.3-5C27.4,18.5,27.2,18.2,26.7,18z"/>
		<path class="st1" d="M10.2,17c1.6,0.1,2.9,1.4,2.9,3c0,1.6-1.4,3-3.1,2.9c-1.7-0.1-2.9-1.4-2.9-3.1C7.1,18.1,8.8,16.9,10.2,17z"/>
	</g>
</g>
</svg>
