<?xml version="1.0" encoding="utf-8"?>
<!-- Generator: Adobe Illustrator 23.1.0, SVG Export Plug-In . SVG Version: 6.00 Build 0)  -->
<svg version="1.1" id="Capa_1" xmlns="http://www.w3.org/2000/svg" xmlns:xlink="http://www.w3.org/1999/xlink" x="0px" y="0px"
	 viewBox="0 0 40 40" style="enable-background:new 0 0 40 40;" xml:space="preserve">
<style type="text/css">
	.st0{fill:#E8762C;}
	.st1{fill:#59879B;}
	.st2{fill:#C72035;}
	.st3{fill:#1F447E;}
	.st4{fill:#EB912C;}
	.st5{fill:#5B6591;}
	.st6{fill:#7099A6;}
</style>
<g>
	<path class="st0" d="M18.8,17c0-0.8,0-1.5,0-2.3c0,0,0-0.1,0-0.1c0-0.1,0-0.1,0.1-0.1c0,0,0,0,0,0c0.6,0,1.1,0,1.7,0
		c0.1,0,0.1,0,0.1,0.1c0,0.1,0,0.1,0,0.2c0,1.5,0,3.1,0,4.6c0,0.2,0,0.2,0.2,0.2c1.4,0,2.8,0,4.2,0c0.2,0,0.2,0,0.2,0.2
		c0,0.5,0,1,0,1.4c0,0,0,0.1,0,0.1c0,0.1,0,0.1-0.1,0.1c-0.1,0-0.1,0-0.2,0c-1.4,0-2.8,0-4.2,0c-0.3,0-0.2,0-0.2,0.2
		c0,1.5,0,3.1,0,4.6c0,0.3,0,0.2-0.2,0.2c-0.5,0-1,0-1.4,0c0,0-0.1,0-0.1,0c-0.1,0-0.1,0-0.1-0.1c0-0.1,0-0.1,0-0.2c0-1.5,0-3,0-4.5
		c0-0.4,0-0.3-0.3-0.3c-1.4,0-2.8,0-4.1,0c-0.3,0-0.2,0-0.2-0.2c0-0.5,0-1,0-1.4c0,0,0-0.1,0-0.1c0-0.1,0-0.1,0.1-0.1
		c0.1,0,0.1,0,0.2,0c1.4,0,2.8,0,4.2,0c0.3,0,0.2,0,0.2-0.2C18.8,18.5,18.8,17.8,18.8,17z"/>
	<path class="st1" d="M29.4,9.3c0,0.7,0,1.3,0,2c0,0,0,0.1,0,0.1c0,0.2,0,0.2,0.2,0.2c1.2,0,2.5,0,3.7,0c0.1,0,0.1,0,0.2,0
		c0.1,0,0.2,0,0.2,0.2c0,0.2,0,0.5,0,0.7c0,0.1,0,0.3,0,0.4c0,0.2,0,0.2-0.2,0.2c-0.1,0-0.1,0-0.2,0c-1.2,0-2.4,0-3.6,0
		c-0.3,0-0.3,0-0.3,0.3c0,1.3,0,2.6,0,3.9c0,0.3,0,0.3-0.3,0.3c-0.4,0-0.7,0-1.1,0c-0.1,0-0.1,0-0.2,0c-0.1,0-0.1,0-0.1-0.1
		c0-0.1,0-0.1,0-0.2c0-1.3,0-2.6,0-3.9c0-0.3,0-0.3-0.3-0.3c-1.2,0-2.4,0-3.6,0c-0.3,0-0.3,0-0.3-0.3c0-0.3,0-0.7,0-1
		c0-0.2,0-0.2,0.2-0.2c0.7,0,1.4,0,2.1,0c0.5,0,1.1,0,1.6,0c0.2,0,0.2,0,0.2-0.2c0-1.3,0-2.6,0-4c0-0.4,0-0.3,0.3-0.3
		c0.4,0,0.7,0,1.1,0c0.2,0,0.2,0,0.2,0.2C29.4,7.9,29.4,8.6,29.4,9.3z"/>
	<path class="st2" d="M11.7,31.6c0,0.7,0,1.4,0,2c0,0,0,0.1,0,0.1c0,0.1,0,0.1-0.1,0.1c0,0,0,0,0,0c-0.5,0-0.9,0-1.4,0
		c-0.1,0-0.1,0-0.1-0.1c0-0.3,0-0.6,0-0.9c0-1.1,0-2.1,0-3.2c0,0,0-0.1,0-0.1c0-0.1,0-0.1-0.1-0.1c-0.1,0-0.1,0-0.2,0
		c-1.2,0-2.4,0-3.6,0c-0.3,0-0.3,0-0.3-0.3c0-0.3,0-0.7,0-1c0-0.2,0-0.2,0.2-0.2c1.3,0,2.5,0,3.8,0c0.2,0,0.2,0,0.2-0.2
		c0-1.4,0-2.7,0-4.1c0-0.2,0-0.2,0.2-0.2c0.4,0,0.8,0,1.2,0c0.2,0,0.2,0,0.2,0.2c0,1.4,0,2.7,0,4.1c0,0.3,0,0.3,0.3,0.3
		c1.2,0,2.5,0,3.7,0c0.2,0,0.2,0,0.2,0.2c0,0.3,0,0.7,0,1c0,0.2,0,0.2-0.2,0.2c-1.2,0-2.5,0-3.7,0c-0.3,0-0.3,0-0.3,0.3
		C11.7,30.3,11.7,30.9,11.7,31.6z"/>
	<path class="st3" d="M29.4,31.6c0,0.7,0,1.3,0,2c0,0,0,0.1,0,0.1c0,0.1,0,0.1-0.1,0.1c-0.4,0-0.9,0-1.3,0c-0.1,0-0.1,0-0.1-0.1
		c0-0.1,0-0.1,0-0.2c0-1.3,0-2.7,0-4c0-0.3,0-0.3-0.3-0.3c-1.2,0-2.4,0-3.7,0c-0.3,0-0.3,0-0.3-0.3c0-0.3,0-0.6,0-0.9
		c0-0.2,0-0.2,0.2-0.2c1.2,0,2.4,0,3.6,0c0.1,0,0.1,0,0.2,0c0.2,0,0.2,0,0.2-0.2c0-0.6,0-1.3,0-1.9c0-0.7,0-1.4,0-2.1
		c0,0,0-0.1,0-0.1c0-0.1,0-0.2,0.2-0.2c0.4,0,0.9,0,1.3,0c0.1,0,0.2,0,0.2,0.2c0,0.1,0,0.1,0,0.2c0,1.3,0,2.6,0,3.9
		c0,0.3,0,0.3,0.3,0.3c1.2,0,2.5,0,3.7,0c0.3,0,0.3,0,0.3,0.3c0,0.3,0,0.6,0,0.9c0,0.2,0,0.2-0.2,0.2c-1.2,0-2.4,0-3.7,0
		c-0.1,0-0.1,0-0.2,0c-0.2,0-0.2,0-0.2,0.2c0,0,0,0.1,0,0.1C29.4,30.2,29.4,30.9,29.4,31.6z"/>
	<path class="st4" d="M11.7,15.3c0,0.7,0,1.4,0,2.1c0,0,0,0.1,0,0.1c0,0.1,0,0.1-0.1,0.1c-0.5,0-0.9,0-1.4,0c-0.1,0-0.1,0-0.1-0.1
		c0,0,0-0.1,0-0.1c0-1.4,0-2.7,0-4.1c0-0.2,0-0.2-0.2-0.2c-1.3,0-2.5,0-3.8,0c-0.2,0-0.2,0-0.2-0.2c0-0.3,0-0.7,0-1
		c0-0.2,0-0.2,0.2-0.2c1.2,0,2.5,0,3.7,0c0.1,0,0.2,0,0.2,0c0.1,0,0.1,0,0.1-0.1c0,0,0-0.1,0-0.1c0-1.3,0-2.7,0-4c0,0,0-0.1,0-0.1
		c0-0.1,0-0.1,0.1-0.1c0.4,0,0.8,0,1.3,0c0.2,0,0.2,0,0.2,0.2c0,0.9,0,1.8,0,2.6c0,0.5,0,1,0,1.5c0,0,0,0.1,0,0.1
		c0,0.1,0,0.1,0.1,0.1c0.1,0,0.1,0,0.2,0c1.3,0,2.5,0,3.8,0c0.3,0,0.2,0,0.2,0.2c0,0.3,0,0.7,0,1c0,0.2,0,0.2-0.2,0.2
		c-1.3,0-2.6,0-3.9,0c-0.3,0-0.2,0-0.2,0.3C11.7,13.9,11.7,14.6,11.7,15.3z"/>
	<path class="st5" d="M19.1,35.8c0-0.4,0-0.9,0-1.3c0,0,0-0.1,0-0.1c0-0.1,0-0.1-0.1-0.1c-0.1,0-0.1,0-0.2,0c-0.8,0-1.5,0-2.3,0
		c0,0-0.1,0-0.1,0c-0.2,0-0.2,0-0.2-0.2c0-0.3,0-0.6,0-0.9c0-0.2,0-0.2,0.2-0.2c0.4,0,0.8,0,1.2,0c0.4,0,0.8,0,1.3,0
		c0.2,0,0.2,0,0.2-0.2c0-0.9,0-1.8,0-2.6c0-0.3,0-0.3,0.3-0.3c0.3,0,0.6,0,0.9,0c0.2,0,0.2,0,0.2,0.2c0,0.9,0,1.8,0,2.6
		c0,0.3,0,0.3,0.3,0.3c0.8,0,1.5,0,2.3,0c0.3,0,0.3,0,0.3,0.3c0,0.3,0,0.5,0,0.8c0,0.2,0,0.2-0.2,0.2c-0.7,0-1.5,0-2.2,0
		c-0.1,0-0.1,0-0.2,0c-0.2,0-0.2,0-0.2,0.2c0,0.9,0,1.7,0,2.6c0,0,0,0.1,0,0.1c0,0.3,0,0.3-0.3,0.3c-0.3,0-0.6,0-0.9,0
		c0,0-0.1,0-0.1,0c-0.1,0-0.1,0-0.1-0.1c0,0,0-0.1,0-0.1C19.1,36.6,19.1,36.2,19.1,35.8z"/>
	<path class="st5" d="M34,22.7c0,0.4,0,0.9,0,1.3c0,0,0,0.1,0,0.1c0,0.1,0,0.2-0.2,0.2c-0.4,0-0.7,0-1.1,0c-0.1,0-0.1,0-0.2-0.2
		c0-0.1,0-0.1,0-0.2c0-0.8,0-1.7,0-2.5c0,0,0-0.1,0-0.1c0-0.2,0-0.2-0.2-0.2c-0.3,0-0.6,0-0.9,0c-0.5,0-1,0-1.5,0c0,0-0.1,0-0.1,0
		c-0.1,0-0.1,0-0.2-0.2c0-0.2,0-0.4,0-0.5c0-0.1,0-0.3,0-0.4c0-0.2,0-0.2,0.2-0.2c0.3,0,0.5,0,0.8,0c0.5,0,1.1,0,1.6,0
		c0,0,0.1,0,0.1,0c0.2,0,0.2,0,0.2-0.2c0,0,0-0.1,0-0.1c0-0.9,0-1.7,0-2.6c0-0.3,0-0.3,0.3-0.3c0.3,0,0.6,0,0.9,0c0,0,0.1,0,0.1,0
		c0.1,0,0.1,0,0.1,0.1c0,0.1,0,0.1,0,0.2c0,0.9,0,1.7,0,2.6c0,0.3,0,0.3,0.3,0.3c0.8,0,1.6,0,2.3,0c0.3,0,0.3,0,0.3,0.2
		c0,0.3,0,0.6,0,0.8c0,0.2,0,0.2-0.2,0.2c-0.8,0-1.6,0-2.4,0c-0.3,0-0.3,0-0.3,0.3C34,21.9,34,22.3,34,22.7z"/>
	<path class="st6" d="M6.5,18.4c0,0.4,0,0.8,0,1.2c0,0,0,0.1,0,0.1c0,0.1,0,0.2,0.2,0.2c0,0,0.1,0,0.1,0c0.8,0,1.5,0,2.3,0
		c0.2,0,0.2,0,0.2,0.2c0,0.2,0,0.4,0,0.6c0,0.1,0,0.2-0.2,0.2c-0.4,0-0.9,0-1.3,0c-0.4,0-0.8,0-1.1,0c-0.1,0-0.1,0-0.2,0
		c0,0-0.1,0-0.1,0.1c0,0.1,0,0.1,0,0.2c0,0.8,0,1.7,0,2.5c0,0.2,0,0.2-0.2,0.2c-0.2,0-0.4,0-0.7,0c-0.2,0-0.2,0-0.2-0.2
		c0-0.1,0-0.1,0-0.2c0-0.8,0-1.7,0-2.5c0-0.2,0-0.2-0.2-0.2c-0.8,0-1.5,0-2.3,0c-0.1,0-0.1,0-0.2,0c-0.1,0-0.1,0-0.1-0.1
		c0-0.3,0-0.5,0-0.8c0-0.1,0-0.1,0.1-0.1c0,0,0.1,0,0.1,0c0.8,0,1.5,0,2.3,0c0.2,0,0.2,0,0.2-0.2c0-0.9,0-1.7,0-2.6
		c0-0.2,0-0.2,0.2-0.2c0.2,0,0.4,0,0.6,0c0.2,0,0.2,0,0.2,0.2C6.5,17.5,6.5,18,6.5,18.4z"/>
	<path class="st6" d="M19.2,9.5c0-0.5,0-0.9,0-1.4c0-0.2,0-0.2-0.2-0.2c-0.8,0-1.6,0-2.3,0c-0.3,0-0.3,0-0.3-0.3c0-0.2,0-0.4,0-0.6
		c0-0.2,0-0.2,0.2-0.2c0.6,0,1.3,0,1.9,0c0.2,0,0.3,0,0.5,0c0.2,0,0.2,0,0.2-0.2c0-0.5,0-0.9,0-1.4c0-0.4,0-0.9,0-1.3
		c0-0.2,0-0.2,0.2-0.2c0.2,0,0.5,0,0.7,0c0.2,0,0.2,0,0.2,0.2c0,0.7,0,1.4,0,2c0,0.2,0,0.5,0,0.7c0,0.2,0,0.2,0.2,0.2
		c0.8,0,1.6,0,2.4,0c0.3,0,0.3,0,0.3,0.3c0,0.2,0,0.4,0,0.6c0,0.1,0,0.2-0.2,0.2c-0.2,0-0.4,0-0.6,0c-0.6,0-1.2,0-1.8,0
		c0,0-0.1,0-0.1,0c-0.2,0-0.2,0-0.2,0.2c0,0.9,0,1.8,0,2.7c0,0.3,0,0.3-0.3,0.3c-0.2,0-0.4,0-0.6,0c-0.2,0-0.2,0-0.2-0.2
		C19.2,10.4,19.2,9.9,19.2,9.5z"/>
</g>
</svg>
