<?xml version="1.0" encoding="utf-8"?>
<!-- Generator: Adobe Illustrator 23.1.0, SVG Export Plug-In . SVG Version: 6.00 Build 0)  -->
<svg version="1.1" id="Capa_1" xmlns="http://www.w3.org/2000/svg" xmlns:xlink="http://www.w3.org/1999/xlink" x="0px" y="0px"
	 viewBox="0 0 40 40" style="enable-background:new 0 0 40 40;" xml:space="preserve">
<style type="text/css">
	.st0{fill:#092E20;}
	.st1{fill:#FEFEFE;}
	.st2{fill:none;stroke:#092E20;stroke-miterlimit:10;}
</style>
<g>
	<path class="st0" d="M4.9,10.1c0.7-1,1.4-1.9,2.2-2.7c1.9-1.9,4.1-3.3,6.7-4.1c0,0,0,0,0-0.1c0.6-0.2,1.2-0.4,1.8-0.5
		c0.4-0.1,0.7-0.1,1.1-0.2c0.3,0,0.7,0,1-0.1c0.8,0,1.7-0.1,2.5-0.1c0.4,0,0.7,0.1,1.1,0.1c0.2,0.1,0.4,0,0.6,0.1
		c0.3,0.1,0.7,0.1,1,0.2c0.3,0.1,0.6,0.1,0.9,0.2c0.4,0.1,0.8,0.2,1.2,0.3c0.4,0.1,0.8,0.2,1.2,0.3c0.7,0.3,1.4,0.7,2.2,1.1
		c1.3,0.8,2.6,1.7,3.7,2.8c1.1,1.1,2.1,2.3,2.9,3.7c0.4,0.7,0.8,1.4,1,2.1c0.2,0.4,0.3,0.8,0.5,1.2c0.2,0.6,0.3,1.3,0.5,2
		c0.1,0.6,0.2,1.1,0.3,1.7c0.1,1.2,0.1,2.4,0,3.6c-0.1,0.2,0,0.4-0.1,0.6c-0.2,0.9-0.4,1.8-0.6,2.7c-0.1,0.3-0.2,0.6-0.3,0.9
		c-0.3,0.9-0.7,1.7-1.1,2.5c-0.3,0.6-0.7,1.2-1.1,1.8c-0.5,0.7-1.1,1.4-1.7,2.1c-0.9,0.9-1.8,1.7-2.8,2.3c-0.5,0.4-1.1,0.7-1.7,1.1
		c-0.1,0.1-0.3,0.1-0.4,0.1c-0.8,0.3-1.5,0.6-2.3,0.9c-0.3,0.2-0.6,0.3-1,0.3c-0.6,0.1-1.1,0.2-1.7,0.3c-1.3,0.2-2.6,0.3-3.9,0.2
		c-1.3-0.1-2.5-0.4-3.8-0.6c-0.4,0-0.7-0.1-1.1-0.4c-0.7-0.3-1.4-0.6-2.1-0.9c-0.5-0.1-0.9-0.4-1.3-0.7c-0.3-0.2-0.6-0.4-0.9-0.6
		c-0.2-0.2-0.5-0.3-0.7-0.5c-0.6-0.5-1.2-1-1.8-1.6c-0.2-0.2-0.5-0.5-0.6-0.7c-0.1-0.1-0.3-0.2-0.4-0.4c-0.2-0.3-0.4-0.6-0.7-0.9
		c0,0,0-0.1-0.1-0.1c-0.5-0.7-1-1.4-1.3-2.2c-0.4-0.7-0.7-1.5-1-2.3c0-0.2-0.1-0.3-0.2-0.5c-0.4-1-0.6-2.1-0.7-3.2
		c-0.1-0.7-0.1-1.5-0.1-2.2c0-1.5,0.2-3,0.6-4.4c0.1-0.3,0.2-0.6,0.3-0.9c0.2-0.8,0.6-1.6,0.9-2.3c0.3-0.6,0.6-1.1,0.9-1.6
		C4.7,10.4,4.8,10.2,4.9,10.1z"/>
	<path class="st1" d="M21,18.1c0,2.8,0,5.6,0,8.4c0,0.2,0,0.3-0.2,0.4c-1.6,0.3-3.3,0.5-4.9,0.5c-1.3,0-2.6-0.2-3.8-0.8
		c-1.3-0.6-2.2-1.6-2.7-3c-0.6-1.9-0.5-3.7,0.4-5.5c0.8-1.6,2.1-2.5,3.8-2.9c1.1-0.3,2.3-0.4,3.5-0.1c0.3,0.1,0.2-0.1,0.2-0.2
		c0-1.7,0-3.4,0-5.1c0-0.3,0.1-0.4,0.4-0.4c1,0,2,0,3,0C21,9.3,21,9.4,21,9.7C21,12.5,21,15.3,21,18.1z"/>
	<path class="st1" d="M19.5,30.9c0.3-0.1,0.5-0.3,0.7-0.4c1.7-0.8,2.6-2.1,2.8-3.9c0.1-1,0.2-2,0.2-3.1c0-2.7,0-5.4,0-8
		c0-0.2,0-0.3,0.3-0.3c1.1,0,2.1,0,3.2,0c0.2,0,0.3,0.1,0.3,0.3c0,3.1,0,6.3,0,9.4c0,1.4-0.1,2.9-0.6,4.2c-0.6,1.6-1.8,2.6-3.3,3.4
		c-0.1,0-0.1,0.1-0.2,0C21.8,32,20.7,31.4,19.5,30.9z"/>
	<path class="st0" d="M17.2,21.2c0,0.9,0,1.8,0,2.7c0,0.3,0,0.4-0.3,0.4c-0.6,0-1.3,0.1-1.9-0.1c-1.4-0.3-1.9-1.2-2-2.4
		c-0.1-0.7,0-1.5,0.3-2.2c0.4-0.9,1.1-1.4,2-1.6c0.6-0.1,1.2-0.1,1.7,0.1c0.2,0.1,0.3,0.1,0.3,0.3C17.2,19.4,17.2,20.3,17.2,21.2z"
		/>
</g>
<circle class="st2" cx="19.7" cy="20" r="17.7"/>
</svg>
