<?xml version="1.0" encoding="utf-8"?>
<!-- Generator: Adobe Illustrator 23.1.0, SVG Export Plug-In . SVG Version: 6.00 Build 0)  -->
<svg version="1.1" id="Capa_1" xmlns="http://www.w3.org/2000/svg" xmlns:xlink="http://www.w3.org/1999/xlink" x="0px" y="0px"
	 viewBox="0 0 40 40" style="enable-background:new 0 0 40 40;" xml:space="preserve">
<style type="text/css">
	.st0{fill:#AECBFA;}
	.st1{fill:#5E97F6;}
	.st2{fill:#4285F4;}
</style>
<path class="st0" d="M19.7,1c-1.9,0-3.3,1.4-3.3,3.3c0,0.6,0.2,1.3,0.6,1.9l1.4-1.4V4.3c0-0.8,0.6-1.4,1.4-1.4
	c0.8,0,1.4,0.6,1.4,1.4c0,0.8-0.6,1.4-1.4,1.4h-0.5L18,7c1.6,1,3.6,0.6,4.6-1c1-1.6,0.6-3.6-1-4.6C21.2,1.1,20.5,1,19.7,1L19.7,1z"
	/>
<path class="st1" d="M18.5,10.6c0-1.1-0.3-2.2-1-3.2l-1.9,1.9c0.2,0.5,0.3,0.8,0.3,1.3c0,0.8-0.3,1.4-0.8,1.9l1,2.5
	C17.7,14.1,18.5,12.4,18.5,10.6L18.5,10.6z"/>
<path class="st1" d="M13.4,13.3c-1.4,0-2.7-1.1-2.7-2.5c0-1.4,1.1-2.7,2.5-2.7c0.5,0,1.1,0.2,1.6,0.5l1.9-1.7
	c-1.1-1-2.2-1.4-3.5-1.4C10.4,5.4,8,7.8,8,10.6c0,2.9,2.2,5.2,5.2,5.2c0.3,0,0.8,0,1.1-0.2L13.4,13.3L13.4,13.3z"/>
<path class="st2" d="M19.9,15.4c-1.1,0-2.2,0.2-3.3,0.5l1.4,3.5c0.6,0,1.3-0.2,1.9-0.2c4.4,0,7.9,3.6,7.9,7.9c0,4.3-3.6,7.9-7.9,7.9
	c-4.3,0-7.9-3.6-7.9-7.9c0-3,1.6-5.7,4.3-7l-1.4-3.5c-5.9,2.9-8.2,10-5.4,15.7c2.9,5.9,10,8.2,15.7,5.4c5.9-2.9,8.2-10,5.4-15.7
	C28.5,18.1,24.3,15.4,19.9,15.4L19.9,15.4z"/>
</svg>
