<?xml version="1.0" encoding="utf-8"?>
<!-- Generator: Adobe Illustrator 23.1.0, SVG Export Plug-In . SVG Version: 6.00 Build 0)  -->
<svg version="1.1" id="Capa_1" xmlns="http://www.w3.org/2000/svg" xmlns:xlink="http://www.w3.org/1999/xlink" x="0px" y="0px"
	 viewBox="0 0 40 40" style="enable-background:new 0 0 40 40;" xml:space="preserve">
<style type="text/css">
	.st0{fill:#0000CB;}
	.st1{fill:#F2E417;}
	.st2{fill:#FE0101;}
	.st3{fill:#FE7901;}
</style>
<g>
	<path class="st0" d="M20.5,2.8c0.1,0,0.3,0,0.4,0c0.9,0,1.8,0.2,2.7,0.3c0.8,0.2,1.6,0.4,2.3,0.6c0.8,0.3,1.6,0.7,2.4,1.1
		c0.8,0.5,1.5,1,2.2,1.6c0.9,0.7,1.6,1.6,2.2,2.5c0.5,0.8,1,1.7,1.2,2.6c0.2,0.7,0.4,1.5,0.4,2.3c0,0.5,0,1,0,1.5
		c0,0.1,0,0.1,0.1,0.1c0.8,0.4,1.4,0.9,1.9,1.6c0.7,0.8,1.2,1.7,1.6,2.6c0.3,0.8,0.5,1.5,0.7,2.3c0.1,0.5,0.1,1,0.2,1.5
		c0,0.4,0,0.7,0,1.1c0,0.7-0.1,1.3-0.2,2c-0.1,0.6-0.3,1.2-0.5,1.8c-0.4,1.2-1,2.2-1.8,3.2c-0.6,0.7-1.4,1.3-2.3,1.7
		c-0.6,0.3-1.2,0.4-1.8,0.4c-0.1,0-0.2,0.1-0.2,0c-0.1-0.1,0-0.2,0-0.2c0-6.5,0-13,0-19.5c0-0.8-0.2-1.5-0.4-2.3
		c-0.3-0.7-0.7-1.4-1.1-2C30,9.2,29.4,8.5,28.7,8c-0.8-0.6-1.6-1.1-2.5-1.5c-0.9-0.4-1.7-0.7-2.7-0.9c-0.6-0.1-1.2-0.3-1.8-0.3
		c-0.8-0.1-1.5-0.1-2.3-0.1c-0.7,0-1.4,0.1-2,0.2c-0.9,0.2-1.8,0.4-2.6,0.7c-0.6,0.2-1.2,0.5-1.8,0.8c-0.8,0.4-1.5,0.9-2.1,1.5
		c-0.6,0.5-1.1,1.1-1.6,1.8C8.6,11.1,8.2,12,8,13c-0.1,0.5-0.1,1-0.1,1.4c0,6.4,0,12.8,0,19.2c0,0.2,0,0.2-0.2,0.2
		c-0.5,0-1-0.1-1.5-0.3c-0.8-0.3-1.5-0.7-2.1-1.3c-0.9-0.9-1.6-1.9-2.1-3.1c-0.3-0.8-0.5-1.6-0.7-2.4c-0.1-0.5-0.2-1.1-0.2-1.6
		c-0.1-0.9,0-1.8,0.1-2.7c0.1-0.8,0.3-1.6,0.6-2.4c0.4-1.1,1-2.1,1.7-3c0.5-0.6,1.2-1.1,1.9-1.5c0.1,0,0.1-0.1,0.1-0.1
		c0-0.4,0-0.8,0-1.2c0-0.9,0.1-1.7,0.4-2.5c0.2-0.7,0.5-1.4,0.8-2C7.2,9,7.7,8.2,8.3,7.6c0.6-0.7,1.3-1.2,2-1.8
		c0.8-0.6,1.6-1,2.4-1.4c0.7-0.3,1.4-0.6,2.1-0.8c0.8-0.3,1.7-0.5,2.6-0.6c0.7-0.1,1.5-0.2,2.2-0.2c0,0,0,0,0,0
		C19.8,2.8,20.2,2.8,20.5,2.8z"/>
	<path class="st1" d="M10.3,21.9c0.1,0,0.1,0.1,0.2,0.2c0,0,0.1,0,0.1,0c0.3-0.6,0.5-1.3,0.8-1.9c0.4-0.7,0.8-1.4,1.3-2
		c0.5-0.6,1-1.1,1.6-1.5c0.3-0.2,0.5-0.5,0.6-0.8c0.3-0.4,0.5-0.8,0.8-1.2c0.2-0.2,0.3-0.5,0.5-0.7c0.3-0.2,0.5-0.2,0.7,0.1
		c0.1,0.2,0.2,0.5,0.2,0.7c0.1,0.3,0.2,0.7,0.4,1c0,0,0,0.1,0.1,0.1c0.1,0.2,0.3,0.2,0.4,0c0.2-0.2,0.3-0.4,0.4-0.7
		c0.3-0.6,0.5-1.3,0.7-1.9c0.1-0.2,0.1-0.3,0.1-0.5c0-0.1,0.1-0.2,0.1-0.3c0.1-0.2,0.3-0.2,0.4,0c0.2,0.2,0.3,0.4,0.4,0.6
		c0.2,0.4,0.4,0.8,0.7,1.2c0.3,0.4,0.5,0.8,0.7,1.2c0.2,0.3,0.5,0.7,0.9,0.9c0.4,0.2,0.8,0.1,1-0.3c0.2-0.3,0.3-0.6,0.3-0.9
		c0.1-0.4,0.2-0.7,0.3-1c0.1-0.3,0.3-0.7,0.4-1c0.1-0.1,0.1-0.3,0.3-0.4c0.1-0.1,0.2-0.1,0.3,0c0.1,0.2,0.2,0.4,0.2,0.7
		c0.1,0.3,0.1,0.6,0.1,0.9c0,0,0,0.1,0,0.1c0.2,0.4,0.3,0.8,0.3,1.3c0.1,0.7,0.1,1.4,0.3,2c0.1,0.2,0.1,0.4,0.2,0.5
		c0.1,0.2,0.4,0.3,0.7,0.2c0.2-0.1,0.4,0,0.6,0c0.4,0.2,0.7,0.5,1,0.8c0.4,0.4,0.7,0.9,1.1,1.3c0,0,0,0,0,0c0,0,0,0.1,0,0.2
		c0,1.2,0,2.3,0,3.5c0,0,0,0.1,0,0.1c0,0.1-0.1,0.2-0.1,0.3c-0.1,0.4-0.3,0.8-0.4,1.1c0,0,0,0,0,0.1c0,0,0,0,0,0c0,0,0,0,0-0.1
		c0-0.1,0-0.2,0-0.3c0-0.4,0-0.7-0.1-1.1c0-0.2,0-0.3,0-0.5c0-0.4,0-0.7-0.1-1.1c0-0.4,0-0.7-0.1-1.1c0-0.2,0-0.5,0-0.7
		c0-0.1,0-0.1,0-0.2c0,0,0,0,0,0c-0.1,0.8-0.2,1.6-0.3,2.4c0,0.4-0.1,0.8-0.2,1.1c0,0,0,0.1,0,0.1c0,0,0,0-0.1,0c0,0,0-0.1-0.1-0.1
		c-0.1-0.3-0.3-0.5-0.4-0.8c-0.1-0.2-0.1-0.4-0.1-0.5c0-0.4-0.1-0.8-0.1-1.3c0-0.4-0.1-0.8-0.1-1.2c0-0.3,0-0.7-0.1-1
		c0-0.1,0-0.1,0-0.2c-0.3,1.3-0.7,2.6-1,3.8c-0.1,0.4-0.2,0.8-0.3,1.2c0,0.1,0,0.2-0.1,0.3c0,0,0,0.1-0.1,0.1c0,0-0.1,0-0.1-0.1
		c-0.1-0.5-0.3-0.9-0.3-1.4c0-0.2-0.1-0.4-0.1-0.7c-0.1-1-0.2-2-0.3-3c-0.1-0.9-0.2-1.8-0.3-2.7c-0.1-0.6-0.1-1.2-0.2-1.8
		c0-0.1,0-0.2,0-0.2c0,0,0,0.1,0,0.1c-0.1,0.6-0.1,1.2-0.2,1.7c-0.1,0.6-0.1,1.3-0.2,1.9c-0.1,0.7-0.2,1.4-0.2,2.1
		c-0.1,0.5-0.1,0.9-0.2,1.4c0,0.1,0,0.3-0.1,0.4c-0.2,0.7-0.3,1.3-0.5,2c0,0.1,0,0.2-0.1,0.2c-0.1,0-0.1-0.1-0.1-0.2
		c-0.1-0.8-0.3-1.7-0.4-2.5c-0.3-1.7-0.5-3.5-0.7-5.1c-0.1,0.5-0.2,1.1-0.3,1.6c-0.2,1.2-0.4,2.4-0.6,3.5c-0.1,0.5-0.2,0.9-0.2,1.4
		c0,0.1,0,0.1,0,0.1c-0.2,0.5-0.3,1-0.5,1.4c0,0.1,0,0.2-0.1,0.2c-0.1,0-0.1-0.1-0.1-0.2c0-0.6,0-1.2,0-1.7c0-0.4,0-0.8,0-1.2
		c0-0.4,0-0.8,0-1.3c0-0.3,0-0.7,0-1c0-0.7,0-1.5-0.1-2.2c0-0.7,0-1.4-0.1-2.1c0-0.7,0-1.4,0-2c0-0.1,0-0.2,0-0.3
		c0,0.7-0.2,1.3-0.2,2c-0.1,0.9-0.2,1.8-0.4,2.8c-0.2,1.5-0.4,3-0.6,4.5c0,0.2,0,0.4-0.1,0.6c0,0.5-0.1,1-0.2,1.5
		c-0.1,0.6-0.2,1.3-0.2,1.9c0,0.1,0,0.1-0.1,0.1c-0.1,0-0.1-0.1-0.1-0.1c-0.1-0.9-0.3-1.9-0.4-2.8c0-0.1,0-0.2,0-0.3
		c0-0.4-0.1-0.8-0.2-1.3c-0.3-1.8-0.5-3.7-0.8-5.5c-0.1-0.6-0.2-1.2-0.3-1.9c0-0.1,0-0.2,0-0.3c0,0,0,0,0,0c0,0,0,0,0,0
		c0,0.3,0,0.6-0.1,0.9c0,0.6-0.1,1.2-0.1,1.7c0,0.6-0.1,1.1-0.1,1.7c0,0.6-0.1,1.2-0.1,1.7c0,0.5-0.1,1-0.1,1.5
		c0,0.4-0.1,0.8-0.1,1.2c0,0.4-0.1,0.7-0.1,1.1c0,0.2,0,0.4-0.1,0.5c0,0,0,0.1,0,0.1c-0.1,0-0.1,0-0.1-0.1c-0.1-0.3-0.3-0.5-0.4-0.8
		c-0.1-0.2-0.2-0.4-0.1-0.6c-0.2-2.2-0.4-4.4-0.5-6.6c0,0.1,0,0.2,0,0.3c0,0.4,0,0.8-0.1,1.3c0,0.3,0,0.7,0,1c0,0.5,0,1.1-0.1,1.6
		c0,0.5,0,0.9-0.1,1.4c0,0.4,0,0.8-0.1,1.2c0,0.1,0,0.2-0.1,0.2c-0.2,0.6-0.5,1.1-0.7,1.7c0,0.1,0,0.1-0.1,0.1
		c-0.1,0-0.1-0.1-0.1-0.2c0-0.5-0.1-1-0.1-1.4c0-0.4-0.1-0.7-0.1-1.1c0-0.2,0-0.3,0-0.5c0-0.5-0.1-1-0.1-1.5c0-0.6-0.1-1.1-0.1-1.7
		c0-0.2,0-0.3,0-0.4c0,0.1,0,0.3,0,0.5c-0.1,0.8-0.2,1.6-0.2,2.4c-0.1,0.8-0.2,1.6-0.2,2.3c0,0.1,0,0.1-0.1,0.2
		c-0.1,0-0.1-0.1-0.1-0.1c-0.2-0.4-0.5-0.8-0.7-1.2c0,0.6,0,1.1,0,1.7c0,0.7,0,1.4,0,2.1c0,0.1,0,0.1-0.1,0.2
		c-0.1,0-0.1-0.1-0.1-0.1c-0.2-0.9-0.5-1.7-0.7-2.6c0-0.2-0.1-0.3-0.1-0.5c0-0.2,0-0.3,0-0.5c0-0.6,0-1.2,0-1.7
		C10.2,22,10.2,22,10.3,21.9z"/>
	<path class="st1" d="M29.7,31.5c-0.4,0.3-0.8,0.6-1.2,0.9c-0.3,0.3-0.5,0.6-0.5,1c-0.1,0.4-0.2,0.8-0.4,1.2c-0.3,0.4-0.6,0.5-1,0.6
		c-0.6,0.1-1.2-0.1-1.8-0.3c-0.1,0-0.2-0.1-0.4-0.1c-0.1,0-0.1-0.1-0.2-0.1c-0.1-0.1-0.1-0.2-0.2-0.3c-0.2-0.2-0.4-0.2-0.7,0
		c-0.2,0.2-0.4,0.5-0.5,0.7c-0.1,0.2-0.2,0.3-0.4,0.5c-0.4,0.3-0.6,0.2-0.8,0c-0.1-0.1-0.2-0.2-0.3-0.3c-0.2,0.2-0.3,0.3-0.5,0.5
		c-0.2,0.2-0.5,0.4-0.8,0.6c-0.4,0.2-0.9,0.2-1.3-0.1c-0.4-0.3-0.6-0.6-0.9-1c-0.2-0.2-0.3-0.4-0.6-0.6c-0.4-0.3-0.6-0.2-0.9,0.1
		c-0.2,0.1-0.3,0.3-0.5,0.4c-0.3,0.2-0.6,0.3-1,0.2c-0.2,0-0.3-0.1-0.5-0.1c-0.7,0-1.3-0.3-1.8-0.6c-0.6-0.4-1.1-0.9-1.6-1.4
		c-0.3-0.3-0.5-0.6-0.8-0.9c0,0,0-0.1,0-0.2c0-1.1,0-2.1,0-3.2c0,0,0-0.1,0-0.1c0-0.1,0.1-0.1,0.1,0c0,0,0.1,0.1,0.1,0.1
		c0.1,0.1,0.2,0.2,0.2,0.3c0.2,0.8,0.5,1.6,0.7,2.4c0,0.1,0.1,0.2,0.1,0.3c0.1-0.8,0.1-1.5,0.2-2.3c0-0.2,0-0.4,0.1-0.6
		c0-0.1,0-0.3,0-0.4c0,0,0-0.1,0.1-0.1c0,0,0,0,0.1,0.1c0,0.1,0,0.2,0.1,0.3c0,0.2,0.1,0.5,0.1,0.7c0.1,0.4,0.2,0.8,0.3,1.3
		c0.1,0.6,0.2,1.2,0.3,1.8c0,0.1,0,0.1,0,0.2c0-1.3,0-2.6,0-3.8c0-0.5,0-0.9,0-1.4c0-0.1,0-0.2,0-0.2c0.1,0,0.1,0.1,0.1,0.1
		c0.1,0.3,0.2,0.6,0.3,0.9c0.2,0.3,0.2,0.6,0.3,1c0.2,1,0.4,2.1,0.7,3.1c0,0.1,0,0.2,0,0.2c0,0,0,0,0,0c0,0,0,0,0,0
		c0-0.1,0-0.2,0-0.3c0-1,0-2,0-3c0-0.7,0-1.3,0-2c0,0,0-0.1,0-0.1c0.1,0,0.1,0,0.1,0c0.1,0.1,0.3,0.3,0.4,0.4
		c0.1,0.1,0.1,0.1,0.1,0.2c0.3,1.6,0.6,3.2,0.8,4.7c0.2-1.4,0.4-2.8,0.6-4.3c0-0.4,0.1-0.9,0.2-1.3c0-0.2,0.1-0.5,0.1-0.7
		c0,0,0-0.1,0-0.1c0,0,0-0.1,0.1-0.1c0,0,0.1,0.1,0.1,0.1c0.1,0.6,0.3,1.2,0.4,1.8c0.1,0.5,0.2,0.9,0.4,1.4c0.3,1.3,0.7,2.7,1,4
		c0,0.1,0,0.2,0,0.2c0-0.1,0-0.2,0-0.3c0-0.5,0-1.1,0-1.6c0-0.5,0-1,0-1.5c0-0.3,0-0.6,0-0.9c0-0.1,0-0.2,0.1-0.4
		c0.2-0.5,0.3-0.9,0.5-1.4c0,0,0,0,0,0c0,0,0-0.1,0.1-0.1c0.1,0,0.1,0.1,0.1,0.1c0.1,0.7,0.1,1.3,0.2,2c0,0.3,0.1,0.7,0.1,1
		c0.1,1.4,0.2,2.7,0.3,4.1c0-0.1,0-0.2,0-0.3c0.2-0.9,0.4-1.8,0.6-2.6c0.2-0.8,0.4-1.5,0.6-2.3c0-0.1,0-0.1,0-0.2
		c0-0.3,0.1-0.6,0.2-0.9c0.1-0.3,0.1-0.5,0.2-0.8c0,0,0-0.1,0-0.1c0,0,0-0.1,0.1-0.1c0.1,0,0,0.1,0.1,0.1c0.1,0.6,0.1,1.1,0.2,1.7
		c0.1,0.5,0.1,1.1,0.2,1.6c0.1,0.6,0.1,1.2,0.2,1.8c0,0.3,0.1,0.5,0.1,0.8c0,0,0,0.1,0,0.1c0-0.1,0-0.2,0-0.2
		c0.3-1.4,0.6-2.8,0.9-4.2c0,0,0-0.1,0-0.1c0.1-0.4,0.2-0.9,0.3-1.3c0-0.1,0.1-0.3,0.1-0.4c0,0,0-0.1,0.1-0.1c0,0,0.1,0,0.1,0.1
		c0,0,0,0.1,0,0.1c0.1,0.7,0.3,1.4,0.4,2.1c0,0.1,0,0.1,0,0.2c0.1,0.6,0.3,1.2,0.4,1.8c0.2,0.8,0.3,1.7,0.5,2.5c0,0.1,0,0.2,0,0.2
		c0-0.2,0-0.5,0-0.7c0-0.4,0-0.9,0.1-1.3c0-0.5,0.1-1.1,0.1-1.6c0-0.4,0-0.7,0.1-1.1c0-0.1,0-0.3,0-0.4c0.1-0.3,0.3-0.5,0.4-0.8
		c0.1-0.1,0.1-0.3,0.2-0.4c0.1-0.1,0.1-0.2,0.1-0.3c0-0.1,0.1-0.2,0.1-0.2c0-0.1,0.1-0.1,0.1,0c0,0.1,0,0.3,0,0.4
		c0,0.5,0,1.1,0.1,1.6c0,0.4,0,0.9,0.1,1.3c0,0.5,0,1.1,0.1,1.6c0,0.5,0.1,1.1,0.1,1.6c0,0,0,0,0,0c0.4-1.8,0.8-3.7,1.2-5.5
		c0-0.2,0.1-0.4,0.1-0.6c0,0,0-0.1,0-0.1c0,0,0-0.1,0.1-0.1c0,0,0,0,0.1,0.1c0.1,0.2,0.1,0.3,0.1,0.5c0,0.1,0.1,0.3,0.1,0.4
		c0.2,0.6,0.3,1.1,0.5,1.7c0,0.1,0,0.1,0,0.2c0.1-0.6,0.1-1.1,0.2-1.7c0,0,0-0.1,0-0.1c0-0.2,0-0.4,0.1-0.6c0,0,0-0.1,0.1-0.1
		c0.1,0,0.1,0,0.1,0.1c0.1,0.1,0.1,0.2,0.2,0.3c0.1,0.2,0.2,0.4,0.3,0.6c0,0,0,0.1,0.1,0.2c0,0.2,0,0.4,0,0.6c0,0.6,0,1.3,0,1.9
		C29.8,31.4,29.8,31.5,29.7,31.5z"/>
	<path class="st0" d="M10.3,28.9c0,1.2,0,2.3,0,3.5c0,0.1,0,0.3,0,0.4c0,0.2-0.1,0.4-0.2,0.5c-0.3,0.4-0.7,0.5-1.2,0.6
		c0,0-0.1,0-0.1-0.1c0,0,0-0.1,0-0.1c0-6.1,0-12.2,0-18.3c0-0.2,0-0.2,0.2-0.1c0.5,0.1,0.9,0.2,1.2,0.5c0.1,0.1,0.1,0.1,0.1,0.2
		c0,1.9,0,3.9,0,5.8c0,0,0,0.1,0,0.1c0,0.8,0,1.7,0,2.5c0,0.1,0,0.3,0,0.4c0,0.4,0,0.7,0,1.1c0,0.9,0,1.8,0,2.7
		C10.3,28.7,10.3,28.8,10.3,28.9z"/>
	<path class="st0" d="M29.7,31.5c0-0.9,0-1.8,0-2.7c-0.1-0.3,0-0.6,0-0.9c0-1,0-1.9,0-2.9c0-0.1,0-0.2,0-0.3c0-0.9,0-1.7,0-2.6
		c0-0.4,0-0.8,0-1.2c0-0.1,0-0.2,0-0.4c0-1.5,0-3,0-4.5c0-0.1,0.1-0.2,0.1-0.3c0.4-0.3,0.8-0.4,1.2-0.5c0.1,0,0.1,0,0.1,0.1
		c0,6.1,0,12.2,0,18.4c0,0.1,0,0.1-0.1,0.1c-0.6-0.1-1-0.3-1.3-0.8c0-0.1,0-0.1,0-0.2C29.8,32.5,29.7,32,29.7,31.5z"/>
	<path class="st2" d="M29.7,25c0,1,0,2,0,2.9c-0.1,0.1-0.2,0.2-0.3,0.2c0,0,0,0-0.1,0c-0.1-0.1-0.1-0.3-0.2-0.5
		c0,0.3-0.1,0.5-0.1,0.7c-0.1,0.2-0.2,0.2-0.4,0.1c-0.1,0-0.3-0.1-0.4-0.2c-0.1-0.3-0.2-0.6-0.3-1c-0.1,0.3-0.1,0.5-0.2,0.8
		c0,0-0.1,0-0.1,0c-0.5-0.1-0.9-0.3-1.4-0.6c0,0-0.1,0-0.1-0.1c0-0.1,0-0.3,0-0.4c-0.1,0.1-0.1,0.2-0.1,0.3c-0.1,0-0.1,0.1-0.1,0.2
		c0,0,0,0.1,0,0.1c-0.1,0.3-0.3,0.7-0.5,1c0,0,0,0.1-0.1,0.1c-0.1,0-0.1-0.1-0.1-0.1c-0.1-0.3-0.1-0.6-0.2-0.8c0-0.1,0-0.2-0.1-0.4
		c-0.2,0.4-0.4,0.8-0.5,1.2c-0.1,0.2-0.2,0.5-0.3,0.7c0,0,0,0.1-0.1,0.1c-0.1-0.4-0.2-0.8-0.2-1.2c-0.1-0.3-0.1-0.7-0.2-1
		c0-0.1,0-0.1-0.1-0.2c-0.1,0.6-0.3,1.1-0.4,1.7c0,0,0,0.1,0,0.1c-0.1,0-0.1-0.1-0.1-0.1c-0.3-0.4-0.5-0.8-0.8-1.2
		c0-0.1-0.1-0.1-0.1-0.2c0,0,0,0.1,0,0.1c-0.1,0.5-0.2,1-0.3,1.5c0,0.1,0,0.1-0.1,0.2c-0.1-0.6-0.1-1.2-0.2-1.8c0,0,0,0,0,0
		c-0.1,0.6-0.3,1.2-0.4,1.8c-0.1,0-0.1,0-0.1-0.1c-0.2-0.3-0.3-0.5-0.5-0.8c0,0,0-0.1-0.1-0.1c-0.1,0.2-0.2,0.5-0.3,0.7
		c-0.2,0.5-0.4,1-0.5,1.4c0,0,0,0.1-0.1,0.1c0,0,0,0-0.1,0c-0.1-1-0.2-2.1-0.2-3.1c0,0,0,0,0,0c0,0.1-0.1,0.2-0.1,0.4
		c-0.1,0.4-0.3,0.8-0.4,1.2c0,0.1-0.1,0.2-0.1,0.3c0,0.3,0,0.6,0,0.9c0,0,0,0.1,0,0.1c-0.1,0-0.1-0.1-0.1-0.2
		c-0.2-0.8-0.3-1.5-0.5-2.3c0-0.2,0-0.2-0.2-0.1c-0.2,0.1-0.4,0.2-0.6,0.3c-0.1,0-0.1,0.1-0.2,0c-0.2-0.6-0.3-1.2-0.5-1.9
		c0,0,0,0,0,0c-0.1,0.7-0.2,1.5-0.3,2.2c0,0,0,0.1-0.1,0c0,0-0.1-0.1-0.1-0.1c-0.3-0.5-0.6-0.9-0.9-1.4c0,0,0-0.1-0.1-0.1
		c0,0,0,0.1,0,0.1c-0.1,0.3-0.1,0.6-0.2,1c0,0,0,0.1-0.1,0.1c0-0.1-0.1-0.1-0.1-0.2c-0.2-0.1-0.3-0.3-0.5-0.5c-0.1,0,0,0.1,0,0.1
		c0,0.6,0,1.1,0,1.7c0,0,0,0.1,0,0.1c-0.1,0-0.1-0.1-0.1-0.1c-0.2-0.3-0.4-0.5-0.6-0.8c-0.1-0.1-0.1-0.1-0.2,0c0,0,0,0-0.1,0
		c-0.1-0.3-0.3-0.7-0.4-1c0,0,0,0,0,0c0,0.5,0,1,0,1.6c-0.1,0.2-0.3,0.4-0.4,0.5c0,0-0.1,0.1-0.1,0.1c-0.1,0.1-0.1,0.1-0.2,0
		c-0.1-0.3-0.1-0.6-0.2-0.9c0,0,0-0.1,0-0.1c0,0.2,0,0.3,0,0.5c0,0,0,0.1,0,0.1c0,0-0.1,0-0.1,0c0,0,0,0,0,0
		c-0.1-0.2-0.3-0.2-0.5-0.2c-0.2,0-0.4,0.1-0.5,0.1c-0.1,0-0.1,0-0.2,0c-0.1,0-0.1-0.1-0.2-0.1c0-1.1,0-2.2,0-3.3c0-0.3,0-0.5,0-0.8
		c0.1,0,0.1,0,0.1,0.1c0.1,0.2,0.1,0.3,0.1,0.5c0.2,0.7,0.4,1.4,0.6,2.1c0,0,0,0,0,0.1c0-0.7,0-1.5,0-2.2c0.1,0,0.1,0,0.1,0
		c0.2,0.1,0.4,0.3,0.6,0.4c0.1,0.1,0.1,0.1,0.2-0.1c0.3-0.8,0.5-1.5,0.8-2.3c0-0.1,0-0.1,0.1-0.2c0.1,0.3,0.1,0.6,0.1,0.9
		c0.1,0.7,0.1,1.4,0.2,2.2c0,0,0,0.1,0,0.1c0.3-0.6,0.5-1.2,0.8-1.8c0,0,0,0,0,0c0.2,0.1,0.2,0.3,0.3,0.4c0.1-0.3,0.3-0.5,0.5-0.8
		c0,0,0-0.1,0.1-0.1c0,0.2,0,0.4,0.2,0.6c0.1,0.2,0.3,0.5,0.4,0.8c0,0,0,0.1,0.1,0.1c0.1-1,0.2-2,0.2-3c0.1-0.2,0.2-0.3,0.3-0.5
		c0,0,0-0.1,0.1-0.1c0,0,0,0.1,0.1,0.1c0,0.3,0.1,0.5,0.1,0.8c0.1,0.8,0.3,1.6,0.4,2.4c0,0.1,0,0.1,0,0.2c0,0,0,0,0,0c0,0,0,0,0,0
		c0-0.1,0-0.1,0-0.2c0.2-0.6,0.3-1.3,0.5-1.9c0-0.1,0-0.2,0.1-0.2c0.1,0,0.1,0.1,0.1,0.1c0.1,0.2,0.2,0.4,0.3,0.6
		c0.1,0.2,0.1,0.4,0.1,0.6c0.1,0.7,0.2,1.4,0.3,2.1c0,0.2,0.1,0.4,0.1,0.5c0.1-0.6,0.2-1.3,0.2-1.9c0.1-0.5,0.1-1,0.2-1.5
		c0,0,0-0.1,0-0.1c0.1,0,0.1,0.1,0.1,0.1c0.2,0.4,0.3,0.8,0.5,1.3c0,0,0,0.1,0.1,0.1c0.2-1,0.5-1.9,0.8-2.9c0,0,0,0,0,0
		c0,0.1,0,0.3,0,0.4c0,1,0,2.1,0.1,3.1c0,0,0,0,0-0.1c0.2-0.5,0.4-1,0.5-1.6c0.1-0.4,0.2-0.9,0.2-1.3c0-0.1,0-0.1,0-0.2
		c0.1,0,0.1,0.1,0.1,0.1c0.2,0.5,0.3,1,0.5,1.5c0,0.1,0.1,0.2,0.1,0.3c0,0,0.1-0.1,0.1-0.1c0.3-0.6,0.6-1.2,0.9-1.7
		c0-0.1,0-0.1,0.1-0.1c0.1,0.9,0.3,1.8,0.4,2.7c0.1-0.3,0.2-0.6,0.2-0.9c0.1-0.5,0.2-1,0.4-1.5c0-0.1,0-0.1,0-0.2c0,0,0,0,0.1,0
		c0,0,0,0.1,0,0.1c0.2,0.7,0.3,1.4,0.5,2.1c0.2-0.3,0.4-0.7,0.5-1c0.1-0.2,0.3-0.5,0.4-0.7c0,0,0-0.1,0.1-0.1c0,0.7,0.2,1.4,0.4,2.1
		c0.1-0.5,0.3-1.1,0.4-1.6c0.1,0,0.1,0.1,0.1,0.1c0.1,0.3,0.2,0.7,0.3,1c0.1,0.2,0.1,0.2,0.2,0c0.2-0.2,0.5-0.5,0.7-0.7
		c0,0,0.1-0.1,0.1-0.1c0.2,0.3,0.3,0.6,0.5,1c0.1-0.4,0.1-0.8,0.2-1.3c0,0,0.1,0,0.1,0c0.2,0.2,0.3,0.3,0.5,0.5c0,0,0,0,0,0.1
		c0,0.6,0.1,1.2,0.1,1.9C29.3,25.7,29.5,25.3,29.7,25C29.7,24.9,29.7,25,29.7,25z"/>
	<path class="st3" d="M17.7,24c-0.1-0.2-0.3-0.5-0.4-0.8c-0.2,0.8-0.4,1.5-0.6,2.3c0,0,0,0,0,0c-0.2-1.2-0.4-2.3-0.6-3.5
		c-0.1,0.2-0.2,0.4-0.4,0.6c0.2-2.5,0.4-5.1,0.6-7.6c0,0,0,0,0,0c0.1,0.6,0.2,1.2,0.2,1.7c0.1,0.6,0.2,1.1,0.3,1.7
		c0.1,0.6,0.2,1.3,0.3,1.9c0.1,0.6,0.2,1.1,0.3,1.7c0.1,0.6,0.2,1.1,0.2,1.7C17.7,23.9,17.8,23.9,17.7,24z"/>
	<path class="st3" d="M20.2,22.7c-0.1-0.1,0-0.3,0-0.5c-0.3,1-0.6,2-0.8,3c-0.1-0.1-0.1-0.2-0.2-0.3c-0.2-0.4-0.3-0.8-0.5-1.1
		c0,0,0-0.1-0.1-0.1c0-0.3,0.1-0.6,0.1-0.9c0-0.4,0.1-0.7,0.1-1.1c0-0.4,0.1-0.7,0.1-1.1c0-0.3,0.1-0.6,0.1-0.9
		c0-0.3,0.1-0.6,0.1-0.9c0-0.4,0.1-0.7,0.1-1.1c0-0.3,0.1-0.6,0.1-0.9c0-0.3,0.1-0.7,0.1-1c0.1-0.5,0.1-1.1,0.2-1.6
		c0-0.1,0-0.3,0.1-0.5c0,0.2,0,0.4,0,0.5c0,0.6,0,1.1,0,1.7c0,0.7,0,1.4,0.1,2.2c0,0.7,0,1.4,0,2.1c0,0.6,0,1.3,0.1,1.9
		C20.2,22.3,20.2,22.5,20.2,22.7z"/>
	<path class="st3" d="M25.5,23.1C25.5,23.1,25.5,23.1,25.5,23.1c-0.3,0.4-0.5,0.9-0.8,1.3c-0.1,0.2-0.2,0.4-0.3,0.6
		c-0.1-0.2-0.1-0.4-0.1-0.6c-0.1-0.6-0.3-1.1-0.4-1.7c0,0,0-0.1-0.1,0c0-0.3,0.1-0.6,0.1-0.9c0-0.4,0.1-0.7,0.1-1.1
		c0-0.4,0.1-0.8,0.2-1.2c0-0.4,0.1-0.8,0.1-1.2c0-0.4,0.1-0.8,0.1-1.2c0-0.3,0.1-0.7,0.1-1c0-0.2,0.1-0.5,0.1-0.7
		C25,17.9,25.3,20.5,25.5,23.1z"/>
	<path class="st3" d="M22.9,22.6c-0.1,0-0.1,0.1-0.1,0.1c-0.3,0.6-0.6,1.2-0.9,1.8c0,0,0,0.1-0.1,0.1c-0.1-0.3-0.2-0.5-0.2-0.7
		c-0.1-0.4-0.2-0.9-0.4-1.3c0.1-0.5,0.2-1,0.3-1.5c0.1-0.5,0.2-0.9,0.2-1.4c0.1-0.5,0.2-0.9,0.2-1.4c0.1-0.3,0.1-0.7,0.2-1
		c0.1,0.5,0.1,1,0.2,1.4c0.1,0.4,0.1,0.9,0.2,1.3c0.1,0.5,0.1,1,0.2,1.5C22.8,21.9,22.8,22.3,22.9,22.6z"/>
	<path class="st3" d="M27.8,24c-0.3,0.3-0.6,0.6-0.8,0.8c-0.1,0.1-0.1,0.1-0.2-0.1c-0.1-0.4-0.2-0.7-0.4-1.1c0,0,0-0.1-0.1-0.1
		c0.1-0.5,0.3-1,0.4-1.4c0.2-0.8,0.4-1.7,0.7-2.5c0,0.2,0,0.3,0,0.5c0,0.5,0.1,0.9,0.1,1.4c0,0.4,0.1,0.8,0.1,1.2
		c0,0.3,0.1,0.6,0.1,1C27.7,23.9,27.8,24,27.8,24z"/>
	<path class="st3" d="M12.9,23.2c-0.1,0.2-0.2,0.4-0.2,0.6c-0.2,0.6-0.4,1.3-0.6,1.9c0,0.1,0,0.1-0.1,0.1c-0.3-0.2-0.5-0.3-0.8-0.5
		c0-0.6,0-1.2,0-1.8c0,0,0,0,0,0c0.3,0.5,0.6,0.9,0.9,1.4c0.2-1.9,0.4-3.7,0.6-5.5c0.1,0.2,0,0.4,0.1,0.6c0,0.4,0.1,0.8,0.1,1.2
		c0,0.4,0.1,0.7,0.1,1.1c0,0.2,0,0.5,0.1,0.7C12.9,23.1,12.9,23.1,12.9,23.2z"/>
	<path class="st3" d="M15,24.1c-0.1,0.2-0.2,0.4-0.3,0.5c-0.1,0.1-0.2,0.3-0.2,0.4c-0.1-0.1-0.2-0.3-0.3-0.4
		c0.1-0.2,0.1-0.3,0.1-0.5c0-0.5,0-1,0.1-1.6c0-0.7,0.1-1.4,0.1-2.1c0-0.2,0-0.4,0-0.6c0-0.5,0-1,0.1-1.6c0-0.2,0-0.5,0-0.7
		c0.1,0.2,0.1,0.3,0.1,0.4c0,0.5,0.1,0.9,0.1,1.4c0,0.5,0.1,0.9,0.1,1.4c0,0.5,0.1,0.9,0.1,1.4c0,0.3,0.1,0.7,0.1,1
		C14.9,23.4,14.9,23.8,15,24.1z"/>
	<path class="st3" d="M29.1,24.3c-0.2-0.2-0.4-0.4-0.6-0.6c0.1-0.4,0.1-0.9,0.2-1.3c0.1-0.4,0.1-0.8,0.2-1.2c0,0.1,0,0.2,0,0.3
		c0,0.5,0,1,0.1,1.6c0,0.4,0.1,0.7,0.1,1.1C29.1,24.2,29.1,24.3,29.1,24.3z"/>
	<path class="st3" d="M10.4,24.9c0,0-0.1,0-0.1-0.1c0-0.1,0-0.3,0-0.4C10.3,24.6,10.4,24.7,10.4,24.9z"/>
	<path class="st3" d="M29.7,25C29.7,25,29.7,24.9,29.7,25c-0.1-0.2,0-0.3,0-0.3C29.7,24.8,29.7,24.9,29.7,25z"/>
	<path class="st3" d="M19.4,30.6C19.4,30.6,19.4,30.6,19.4,30.6c0.2-0.5,0.4-0.9,0.6-1.4c0.1-0.3,0.2-0.6,0.4-1
		c0.2,0.3,0.4,0.6,0.6,0.9c0,0,0,0.1,0.1,0.1c-0.2,0.9-0.4,1.7-0.6,2.6c-0.2,0.6-0.3,1.3-0.5,1.9c-0.1,0.3-0.1,0.5-0.2,0.8
		c0,0,0,0.1,0,0.1C19.6,33.4,19.5,32,19.4,30.6z"/>
	<path class="st3" d="M26.2,27.6c0.1,0,0.1,0.1,0.2,0.1c0.4,0.2,0.9,0.4,1.4,0.5c-0.2,0.7-0.3,1.4-0.5,2.1c-0.2,1-0.5,2-0.7,3
		c0,0.1-0.1,0.3-0.1,0.4c0,0,0-0.1,0-0.1c0-0.4,0-0.8-0.1-1.2c0-0.8-0.1-1.5-0.1-2.3c0-0.5,0-0.9-0.1-1.4
		C26.3,28.4,26.2,28,26.2,27.6z"/>
	<path class="st3" d="M21.7,29.2c0.1-0.3,0.1-0.5,0.2-0.8c0.1-0.3,0.1-0.7,0.2-1c0,0.1,0.1,0.1,0.1,0.2c0.3,0.4,0.6,0.9,0.9,1.3
		c0,0,0,0.1,0.1,0.1c-0.1,0.4-0.2,0.8-0.3,1.3c-0.1,0.4-0.2,0.9-0.3,1.3c-0.1,0.6-0.3,1.3-0.4,1.9c0,0,0,0.1,0,0.2
		C21.9,32.1,21.8,30.7,21.7,29.2z"/>
	<path class="st3" d="M14.7,28.1c0.1-0.2,0.1-0.5,0.2-0.7c0-0.2,0.1-0.4,0.1-0.6c0,0,0.1,0,0.1,0.1c0.3,0.5,0.7,1,1,1.5
		c0,0,0,0.1,0.1,0c0,0.3-0.1,0.7-0.1,1c0,0.3-0.1,0.7-0.1,1c-0.1,0.4-0.1,0.9-0.2,1.3c0,0.3-0.1,0.6-0.1,0.9c0,0,0,0.1,0,0.2
		C15.3,31.3,15,29.7,14.7,28.1z"/>
	<path class="st3" d="M24,29.5c0.1,0,0.1-0.1,0.1-0.1c0.2-0.5,0.5-1,0.7-1.6c0.1-0.1,0.1-0.3,0.2-0.4c0.1,0.5,0.2,0.9,0.3,1.4
		c0,0,0,0.1,0,0.1c0,0.1,0,0.2,0,0.3c0,0.4,0,0.8-0.1,1.2c0,0.5-0.1,1.1-0.1,1.6c0,0.3,0,0.6-0.1,1c0,0.4,0,0.8-0.1,1.3
		C24.7,32.6,24.4,31,24,29.5z"/>
	<path class="st3" d="M17,28.1c0.1,0,0.1,0,0.1,0c0.2-0.1,0.5-0.2,0.7-0.4c0.1,0,0.1,0,0.1,0.1c0.2,0.8,0.3,1.7,0.5,2.5
		c0,0,0,0,0,0.1c0,0,0-0.1,0-0.1c0,0.4,0,0.9,0,1.3c0,0.1,0,0.1,0,0.2c0,0.6,0,1.3,0,1.9c0,0,0,0.1,0,0.1c-0.2-0.6-0.3-1.2-0.5-1.9
		c-0.3-1.2-0.6-2.4-0.9-3.7C17,28.2,17,28.2,17,28.1z"/>
	<path class="st3" d="M13,28.5C13.1,28.4,13.1,28.4,13,28.5c0.2-0.2,0.2-0.1,0.3-0.1c0.3,0.3,0.5,0.6,0.8,1c0,0,0-0.1,0-0.1
		c0-0.6,0-1.1,0-1.7c0,0,0-0.1,0-0.1c0,0,0,0.1,0,0.1c0,1.4,0,2.7,0,4.1c0,0.4,0,0.8,0,1.3c-0.1-0.4-0.2-0.8-0.3-1.2
		c-0.1-0.5-0.2-1.1-0.3-1.6c-0.1-0.4-0.2-0.8-0.2-1.2C13.2,28.7,13.1,28.6,13,28.5z"/>
	<path class="st3" d="M10.4,29c0.3,0,0.6-0.1,0.9-0.1c0.1,0,0.2,0,0.2,0.1c0,0.1,0.1,0.1,0.1,0.2c0,0,0,0,0-0.1
		c0,0.3-0.1,0.6-0.1,0.9c0,0.4-0.1,0.8-0.1,1.1c0,0.3-0.1,0.6-0.1,0.9c-0.1-0.3-0.2-0.6-0.3-0.9c-0.1-0.5-0.3-1-0.4-1.5
		c0-0.1-0.1-0.2-0.1-0.4C10.6,29.2,10.5,29.1,10.4,29z"/>
	<path class="st3" d="M12,29.7c0.1,0.1,0.1,0,0.2,0c0.2-0.2,0.3-0.4,0.5-0.6c0,1.3,0,2.6,0,3.9c0,0,0,0,0,0.1
		c-0.1-0.6-0.2-1.1-0.3-1.6c-0.1-0.5-0.2-1.1-0.3-1.6C12,29.7,12,29.7,12,29.7z"/>
	<path class="st3" d="M28.3,28.4c0.1,0,0.3,0.1,0.4,0.1c0.1,0.1,0.2,0,0.3-0.1c0,0,0,0,0.1,0c0,0.4-0.1,0.7-0.1,1.1
		c0,0.3-0.1,0.5-0.1,0.8c-0.1-0.3-0.2-0.5-0.2-0.8C28.5,29.1,28.4,28.8,28.3,28.4C28.3,28.4,28.3,28.4,28.3,28.4z"/>
	<path class="st3" d="M29.4,28.1c0.1,0,0.2-0.2,0.4-0.2c0,0.3,0,0.6,0,0.9C29.6,28.6,29.5,28.4,29.4,28.1z"/>
	<path class="st3" d="M25.9,27.7c0,0,0-0.1,0-0.1c0-0.1,0-0.2,0.2-0.1C26,27.5,26,27.6,25.9,27.7z"/>
</g>
</svg>
