<?xml version="1.0" encoding="utf-8"?>
<!-- Generator: Adobe Illustrator 23.1.0, SVG Export Plug-In . SVG Version: 6.00 Build 0)  -->
<svg version="1.1" id="Capa_1" xmlns="http://www.w3.org/2000/svg" xmlns:xlink="http://www.w3.org/1999/xlink" x="0px" y="0px"
	 viewBox="0 0 40 40" style="enable-background:new 0 0 40 40;" xml:space="preserve">
<style type="text/css">
	.st0{fill:#00DEB6;}
	.st1{fill:#00F5C9;}
	.st2{fill:#002620;}
	.st3{fill:#00251F;}
</style>
<g>
	<rect x="35" y="2.6" class="st0" width="2.5" height="34.1"/>
	<path class="st0" d="M33.1,2.6c0.6,0,1.3,0,1.9,0c0.6,0,1.3,0,1.9,0c0,0.6,0,1.3,0,1.9c0.3,0.6,0.3,1.3,0,1.9c0,0.6,0,1.3,0,1.9
		c0.3,0.6,0.3,1.3,0,1.9c0,0.6,0,1.3,0,1.9c0.3,0.6,0.3,1.3,0,1.9c0,0.6,0,1.3,0,1.9c0.3,0.6,0.3,1.3,0,1.9c0,0.6,0,1.3,0,1.9
		c0.3,0.6,0.3,1.3,0,1.9c0,0.6,0,1.3,0,1.9c0.3,0.6,0.3,1.3,0,1.9c0,0.6,0,1.3,0,1.9c0.3,0.6,0.3,1.3,0,1.9c0,0.6,0,1.3,0,1.9
		c0.3,0.6,0.3,1.3,0,1.9c0,0.6,0,1.3,0,1.9c0.3,0.6,0.3,1.3,0,1.9c0,0,0,0,0,0c-0.6,0-1.3,0-1.9,0c-0.6,0-1.3,0-1.9,0
		c-0.6,0-1.3,0-1.9,0c-0.6,0-1.3,0-1.9,0c-0.6,0-1.3,0-1.9,0c-0.6,0-1.3,0-1.9,0c-0.6,0-1.3,0-1.9,0c-0.6,0-1.3,0-1.9,0
		c-0.6,0-1.3,0-1.9,0c-0.6,0-1.3,0-1.9,0c-0.6,0-1.3,0-1.9,0c-0.6,0-1.3,0-1.9,0c-0.6,0-1.3,0-1.9,0c-0.6,0-1.3,0-1.9,0
		c-0.6,0-1.3,0-1.9,0c-0.6,0-1.3,0-1.9,0c-0.6,0-1.3,0-1.9,0c-0.6,0-1.3,0-1.9,0c0-0.6,0-1.3,0-1.9c0-0.6,0-1.3,0-1.9
		c0-0.6,0-1.3,0-1.9c0-0.6,0-1.3,0-1.9c0-0.6,0-1.3,0-1.9c0-0.6,0-1.3,0-1.9c0-0.6,0-1.3,0-1.9c0-0.6,0-1.3,0-1.9c0-0.6,0-1.3,0-1.9
		c0-0.6,0-1.3,0-1.9c0-0.6,0-1.3,0-1.9c0-0.6,0-1.3,0-1.9c0-0.6,0-1.3,0-1.9c0-0.6,0-1.3,0-1.9c0-0.6,0-1.3,0-1.9c0-0.6,0-1.3,0-1.9
		c0-0.6,0-1.3,0-1.9c0-0.6,0-1.3,0-1.9c0.6,0,1.3,0,1.9,0c0.6,0,1.3,0,1.9,0c0.6,0,1.3,0,1.9,0c0.6,0,1.3,0,1.9,0c0.6,0,1.3,0,1.9,0
		c0.6,0,1.3,0,1.9,0c0.6,0,1.3,0,1.9,0c0.6,0,1.3,0,1.9,0c0.6,0,1.3,0,1.9,0c0.6,0,1.3,0,1.9,0c0.6,0,1.3,0,1.9,0c0.6,0,1.3,0,1.9,0
		c0.6,0,1.3,0,1.9,0c0.6,0,1.3,0,1.9,0c0.6,0,1.3,0,1.9,0C31.9,2.6,32.5,2.6,33.1,2.6z"/>
	<path class="st1" d="M4.8,34.7c-0.2-0.1-0.1-0.4-0.1-0.6c0-9.6,0-19.3,0-28.9c0-0.2-0.1-0.4,0.1-0.6c0,0,0.1,0.1,0.1,0.1
		C5.1,5.1,5,5.4,5,5.7c0,9.3,0,18.7,0,28C5,34,5.1,34.3,4.8,34.7C4.9,34.7,4.9,34.7,4.8,34.7z"/>
	<path class="st1" d="M34.9,4.7C35.1,4.8,35,5.1,35,5.3c0,9.6,0,19.3,0,28.9c0,0.2,0.1,0.4-0.1,0.6c0,0-0.1-0.1-0.1-0.1
		c-0.1-0.3-0.1-0.6-0.1-0.9c0-9.3,0-18.6,0-28C34.7,5.4,34.7,5.1,34.9,4.7C34.8,4.7,34.8,4.7,34.9,4.7z"/>
	<path class="st1" d="M4.8,4.7C5,4.5,5.3,4.5,5.5,4.5c9.6,0,19.2,0,28.8,0c0.2,0,0.5-0.1,0.6,0.1c0,0,0,0,0,0
		c-0.2,0.2-0.5,0.2-0.8,0.2c-9.5,0-18.9,0-28.4,0C5.4,4.9,5.1,4.9,4.8,4.7L4.8,4.7z"/>
	<path class="st1" d="M34.9,34.7c-0.1,0.2-0.4,0.1-0.6,0.1c-9.6,0-19.3,0-28.9,0c-0.2,0-0.4,0.1-0.6-0.1c0,0,0,0,0,0
		c0.2-0.2,0.6-0.2,0.8-0.2c9.4,0,18.9,0,28.3,0C34.3,34.5,34.6,34.5,34.9,34.7L34.9,34.7z"/>
	<path class="st2" d="M35.3,34.7c-7.3,0-14.5,0-21.8,0c-2.9,0-5.8,0-8.7,0c0-0.1,0-0.2,0-0.3c0-9.9,0-19.8,0-29.7
		c10.1,0,20.1,0,30.2,0c0.1,0,0.2,0,0.3,0c0,0.2,0,0.4,0,0.6c0,9.6,0,19.2,0,28.8C35.4,34.3,35.3,34.5,35.3,34.7z"/>
	<path class="st0" d="M14.4,11c1.5,0,1.5-0.3,2.1,1.6c1,3.6,2.2,7.2,3.2,10.8c0.2,0.8,0.5,1.6,0.7,2.5c0.2,0.8,0,1.1-0.8,1.2
		c-2,0-1.7,0-2.2-1.5c-0.3-0.8-0.5-1.5-0.8-2.3c-0.1-0.4-0.4-0.6-0.8-0.6c-1,0-2,0-3,0c-0.5,0-0.8,0.3-0.9,0.7
		c-0.2,0.9-0.5,1.7-0.7,2.6c-0.3,1-1.2,1.4-2.1,1c-0.4-0.2-0.5-0.5-0.4-0.9c0.6-2.1,1.1-4.1,1.7-6.2c0.7-2.4,1.3-4.8,2-7.3
		C12.8,10.8,12.9,11,14.4,11z"/>
	<path class="st0" d="M22.3,15.5c0.2-0.4,0.6-0.3,1-0.3c2.1,0,1.8,0,1.8,1.7c0,1.9,0,3.9,0,5.8c0,1.5,1.5,2.4,2.8,1.9
		c0.4-0.1,0.4-0.4,0.4-0.8c0-2.5,0-5.1,0-7.6c0-1,0.1-1.1,1.1-1.1c0.3,0,0.6,0,0.9,0c0.8,0,0.8,0.1,0.8,0.8c0,0.7,0,1.4,0,2.1
		c0,0,0,0,0,0.1c-0.1,2.6-0.1,5.2,0,7.8c0,0.2-0.1,0.2-0.3,0.3c-1.9,0.7-3.8,1.2-5.8,0.6c-1.5-0.4-2.4-1.5-2.6-3.1
		c0.1-1.6,0-3.2,0-4.8C22.3,17.9,22.4,16.7,22.3,15.5z"/>
	<path class="st1" d="M22.3,15.5c0.2,0.1,0.1,0.3,0.1,0.5c0,2.5,0,4.9,0,7.4c0,0.2,0,0.3-0.1,0.5C22.2,21.1,22.2,18.3,22.3,15.5z"/>
	<path class="st1" d="M31,26c-0.2-0.1-0.1-0.3-0.1-0.5c0-2.3,0-4.5,0-6.8c0-0.2-0.1-0.4,0.1-0.5C31,20.8,31,23.4,31,26z"/>
	<path class="st3" d="M14.4,14.2c0.5,1.9,1.1,3.9,1.6,5.9c-1,0-2,0-2.9,0c-0.5,0-0.2-0.3-0.2-0.5c0.3-1.4,0.7-2.8,1.1-4.3
		c0.1-0.4,0.2-0.8,0.3-1.1C14.3,14.2,14.4,14.2,14.4,14.2z"/>
</g>
</svg>
